<svg id="Layer_1" viewBox="0 0 512 512" xmlns="http://www.w3.org/2000/svg" data-name="Layer 1"><path d="m487.812 464.043-18.56-167.85c-.841-7.6-7.263-13.352-14.909-13.352h-29.036v-14.201c0-14.868-8.158-27.858-20.227-34.754 1.818-11.372 2.727-22.687 2.727-33.973 0-105.821-86.092-191.914-191.913-191.914s-191.913 86.093-191.913 191.915c0 52.443 19.507 105.494 59.637 162.185 33.906 47.9 76.99 90.282 111.609 124.336 5.441 5.353 10.705 10.531 15.73 15.529 1.365 1.358 3.151 2.037 4.937 2.037s3.571-.679 4.937-2.037c5.025-4.998 10.289-10.176 15.73-15.529 5.06-4.977 10.315-10.153 15.682-15.478.689 7.271 3.741 14.182 8.912 19.956 7.341 8.195 18.304 13.087 29.326 13.087h159.143c11.022 0 21.985-4.893 29.326-13.087 6.79-7.581 9.938-17.122 8.862-26.869zm-96.074-181.202c1.265-3.303 2.455-6.598 3.569-9.885v9.885z" fill="#ff637b"/><path d="m487.812 464.043-18.56-167.85c-.841-7.6-7.263-13.352-14.909-13.352h-29.036v53.965c0 8.284-6.716 15-15 15s-15-6.716-15-15v-53.965h-50.51v53.965c0 8.284-6.716 15-15 15s-15-6.716-15-15v-53.965h-29.036c-7.646 0-14.068 5.751-14.909 13.352l-18.56 167.854c-1.075 9.744 2.072 19.285 8.862 26.866 7.341 8.195 18.304 13.087 29.326 13.087h159.143c11.022 0 21.985-4.893 29.326-13.087 6.79-7.581 9.938-17.122 8.862-26.869z" fill="#ffbe40"/><path d="m469.253 296.193c-.841-7.6-7.263-13.352-14.909-13.352h-29.036v53.965c0 8.284-6.716 15-15 15s-15-6.716-15-15v-53.965h-25.255v221.158h79.571c11.022 0 21.985-4.893 29.326-13.087 6.79-7.581 9.938-17.122 8.862-26.869l-18.56-167.85z" fill="#f4ad2f"/><g fill="#f24466"><path d="m385.299 258.632h-30.492c-5.519 0-10.009 4.49-10.009 10.009v14.201h46.941c1.265-3.303 2.455-6.598 3.569-9.885v-4.316c0-5.425-4.583-10.009-10.009-10.009z"/><path d="m252.293 464.047 18.56-167.854c.841-7.6 7.263-13.352 14.909-13.352h29.036v-14.201c0-22.061 17.948-40.009 40.009-40.009h30.492c7.193 0 13.942 1.918 19.782 5.254 1.818-11.372 2.727-22.687 2.727-33.973 0-105.821-86.092-191.914-191.913-191.914v496c1.785 0 3.571-.679 4.937-2.037 5.025-4.998 10.289-10.176 15.73-15.529 5.06-4.977 10.315-10.153 15.682-15.478-.216-2.276-.207-4.587.049-6.91z"/></g><path d="m215.895 284.557c46.617 0 84.643-38.026 84.643-84.643s-38.026-84.614-84.643-84.614-84.614 37.997-84.614 84.614 37.997 84.643 84.614 84.643z" fill="#e1e6f0"/><path d="m215.894 115.3v169.257c46.617 0 84.644-38.026 84.644-84.643s-38.026-84.614-84.644-84.614z" fill="#d6ddea"/><path d="m410.307 351.807c-8.284 0-15-6.716-15-15v-68.166c0-5.425-4.583-10.009-10.009-10.009h-30.492c-5.519 0-10.009 4.49-10.009 10.009v68.166c0 8.284-6.716 15-15 15s-15-6.716-15-15v-68.166c0-22.061 17.948-40.009 40.009-40.009h30.492c22.061 0 40.009 17.948 40.009 40.009v68.166c0 8.284-6.716 15-15 15z" fill="#4d5e80"/><path d="m344.798 318.281v18.526c0 8.284-6.716 15-15 15s-15-6.716-15-15v-18.526c-5.392 4.371-8.84 11.044-8.84 18.526 0 13.167 10.674 23.84 23.84 23.84s23.84-10.674 23.84-23.84c0-7.481-3.449-14.155-8.84-18.526z" fill="#ff9f40"/><path d="m425.307 318.281v18.526c0 8.284-6.716 15-15 15s-15-6.716-15-15v-18.526c-5.392 4.371-8.84 11.044-8.84 18.526 0 13.167 10.674 23.84 23.84 23.84s23.84-10.674 23.84-23.84c0-7.481-3.449-14.155-8.84-18.526z" fill="#f48927"/></svg>