<svg id="flat_00000110461571953218280800000003971264557366388905_" enable-background="new 0 0 512 512" viewBox="0 0 512 512" xmlns="http://www.w3.org/2000/svg"><g><path clip-rule="evenodd" d="m267.1 297-75.2-30.6-75.3-30.6v-61.1-61.1l75.3 30.5 75.2 30.6v61.1z" fill="#e18a7a" fill-rule="evenodd"/><path clip-rule="evenodd" d="m267.1 297 75.2-30.6 75.3-30.6v-61.1-61.1l-75.3 30.5-75.2 30.6v61.1z" fill="#ffc3aa" fill-rule="evenodd"/><path clip-rule="evenodd" d="m417.6 113.6-75.3-30.6-75.2-30.6-75.2 30.6-75.3 30.6 75.3 30.5 75.2 30.6 75.2-30.6z" fill="#d291bc" fill-rule="evenodd"/><path clip-rule="evenodd" d="m417.6 113.6-75.3-30.6-75.2-30.6-75.2 30.6-19.2 7.8c28.3 25.7 85.1 43.3 150.5 43.3 19 0 37.2-1.5 54.3-4.2z" fill="#ddbbd2" fill-rule="evenodd"/><path d="m333.4 80.1c1.5-.7 3.3.1 3.9 1.6.7 1.5-.1 3.3-1.6 3.9l-140 60.2-3.9-1.6-2.8-1.1c.3-.7.9-1.3 1.6-1.6z" fill="#d291bc"/><g clip-rule="evenodd" fill-rule="evenodd"><path d="m118 47.6c4.7 0 8.5 3.8 8.5 8.5s-3.8 8.5-8.5 8.5-8.5-3.8-8.5-8.5 3.8-8.5 8.5-8.5z" fill="#eeb9a2"/><path d="m53.4 227.8c4.1 0 7.4 3.3 7.4 7.3 0 4.1-3.3 7.4-7.4 7.4s-7.3-3.3-7.3-7.4c0-4 3.2-7.3 7.3-7.3z" fill="#eeb9a2"/><path d="m387.1 38.5c7 0 12.7 5.7 12.7 12.7s-5.7 12.7-12.7 12.7-12.7-5.7-12.7-12.7 5.7-12.7 12.7-12.7z" fill="#eeb9a2"/><path d="m43.7 152.9c7 0 12.7 5.7 12.7 12.7s-5.7 12.7-12.7 12.7-12.7-5.7-12.7-12.7 5.7-12.7 12.7-12.7z" fill="#eeb9a2"/><path d="m202 473.5-75.2-30.6-75.3-30.5v-61.2-61.1l75.3 30.6 75.2 30.5v61.2z" fill="#65763f"/><path d="m202 473.5 75.2-30.6 75.2-30.5v-61.2-61.1l-75.2 30.6-75.2 30.5v61.2z" fill="#5b5b1e"/><path d="m352.4 290.1-75.2-30.6-75.2-30.5-75.2 30.5-75.3 30.6 75.3 30.6 75.2 30.5 75.2-30.5z" fill="#7fa389"/><path d="m352.4 290.1-75.2-30.6-75.2-30.5-75.2 30.6-19.2 7.8c28.4 25.7 85.1 43.3 150.5 43.3 19 0 37.2-1.5 54.3-4.2z" fill="#c3d3a2"/></g><path d="m268.3 256.6c1.5-.7 3.3.1 3.9 1.6.7 1.5 0 3.3-1.6 3.9l-140 60.2-3.9-1.6-2.8-1.1c.3-.7.8-1.3 1.6-1.6z" fill="#7fa389"/><path clip-rule="evenodd" d="m419.7 387.4c4.5 0 8.1 3.6 8.1 8.1s-3.7 8.2-8.1 8.2c-4.5 0-8.2-3.7-8.2-8.2s3.7-8.1 8.2-8.1z" fill="#eeb9a2" fill-rule="evenodd"/><path clip-rule="evenodd" d="m400 178.2c44.8 0 81 36.3 81 81s-36.3 81-81 81-81-36.3-81-81c-.1-44.8 36.2-81 81-81z" fill="#ff99c8" fill-rule="evenodd"/><path clip-rule="evenodd" d="m347.4 268.3 14.9-14.9 19.1 19 56.2-56.3 14.9 15-71.1 71.2z" fill="#e6e6e6" fill-rule="evenodd"/><path clip-rule="evenodd" d="m420.2 66.4c3.4 0 6.2 2.7 6.2 6.2 0 3.4-2.7 6.1-6.2 6.1-3.4 0-6.1-2.7-6.1-6.1 0-3.5 2.7-6.2 6.1-6.2z" fill="#eeb9a2" fill-rule="evenodd"/></g></svg>