<?xml version="1.0" encoding="iso-8859-1"?>
<!-- Generator: Adobe Illustrator 19.0.0, SVG Export Plug-In . SVG Version: 6.00 Build 0)  -->
<svg version="1.1" id="Capa_1" xmlns="http://www.w3.org/2000/svg" xmlns:xlink="http://www.w3.org/1999/xlink" x="0px" y="0px"
	 viewBox="0 0 512 512" style="enable-background:new 0 0 512 512;" xml:space="preserve">
<g>
	<path style="fill:#F1F2F2;" d="M405.333,288v74.667c0,5.867-4.8,10.667-10.667,10.667H352c-5.867,0-10.667-4.8-10.667-10.667V288
		H405.333z"/>
	<path style="fill:#F1F2F2;" d="M234.667,74.667v74.667c0,5.867-4.8,10.667-10.667,10.667h-42.667
		c-5.867,0-10.667-4.8-10.667-10.667V74.667H234.667z"/>
</g>
<g>
	<path style="fill:#FED049;" d="M490.667,309.333V480c0,11.733-9.6,21.333-21.333,21.333h-192C265.6,501.333,256,491.733,256,480
		V309.333C256,297.6,265.6,288,277.333,288h21.333h42.667v74.667c0,5.867,4.8,10.667,10.667,10.667h42.667
		c5.867,0,10.667-4.8,10.667-10.667V288h32h32C481.067,288,490.667,297.6,490.667,309.333z"/>
	<path style="fill:#FED049;" d="M277.333,288C265.6,288,256,297.6,256,309.333C256,297.6,246.4,288,234.667,288h-64h-64
		c-11.733,0-21.333-9.6-21.333-21.333V96c0-11.733,9.6-21.333,21.333-21.333h64v74.667c0,5.867,4.8,10.667,10.667,10.667H224
		c5.867,0,10.667-4.8,10.667-10.667V74.667h42.667h21.333C310.4,74.667,320,84.267,320,96v170.667C320,278.4,310.4,288,298.667,288
		H277.333z"/>
</g>
<g>
	<path style="fill:#A4B0C0;" d="M437.333,74.667V128c0,0-42.667,0-53.333,0c-10.667,0-10.667-10.667-10.667-10.667s0-21.333,0-32
		S384,74.667,384,74.667H437.333z"/>
	<path style="fill:#A4B0C0;" d="M170.667,288v74.667c0,5.867-4.8,10.667-10.667,10.667h-42.667c-5.867,0-10.667-4.8-10.667-10.667
		V288H170.667z"/>
</g>
<g>
	<path style="fill:#D0D7DF;" d="M298.667,288C310.4,288,320,278.4,320,266.667V96c0-11.733-9.6-21.333-21.333-21.333h-21.333V32
		c0,0,0-21.333,21.333-21.333c21.333,0,117.333,0,117.333,0s21.333,0,21.333,21.333v42.667H384c0,0-10.667,0-10.667,10.667
		s0,32,0,32S373.333,128,384,128c10.667,0,53.333,0,53.333,0v160h-32h-64H298.667z"/>
	<path style="fill:#D0D7DF;" d="M256,309.333V480c0,11.733-9.6,21.333-21.333,21.333h-192c-11.733,0-21.333-9.6-21.333-21.333
		V309.333c0-11.733,9.6-21.333,21.333-21.333h64v74.667c0,5.867,4.8,10.667,10.667,10.667H160c5.867,0,10.667-4.8,10.667-10.667V288
		h64C246.4,288,256,297.6,256,309.333z"/>
</g>
<g>
	<path style="fill:#474C54;" d="M117.333,426.667h-10.667c-5.888,0-10.667,4.779-10.667,10.667S100.779,448,106.667,448h10.667
		c5.888,0,10.667-4.779,10.667-10.667S123.221,426.667,117.333,426.667z"/>
	<path style="fill:#474C54;" d="M170.667,426.667H160c-5.888,0-10.667,4.779-10.667,10.667S154.112,448,160,448h10.667
		c5.888,0,10.667-4.779,10.667-10.667S176.555,426.667,170.667,426.667z"/>
	<path style="fill:#474C54;" d="M469.333,277.333H328.704c1.195-3.349,1.963-6.912,1.963-10.667V96c0-17.643-14.357-32-32-32H288
		V32.128c0.128-4.928,2.08-10.795,10.667-10.795h117.205c4.928,0.128,10.795,2.08,10.795,10.667v32H384
		c-10.347,0-21.333,7.477-21.333,21.333v32c0,10.347,7.477,21.333,21.333,21.333h42.667v106.667c0,5.888,4.779,10.667,10.667,10.667
		S448,251.221,448,245.333V32c0-23.477-19.136-32-32-32H298.667c-23.477,0-32,19.136-32,32v32h-160c-17.643,0-32,14.357-32,32
		v170.667c0,3.755,0.768,7.317,1.963,10.667H42.667c-17.643,0-32,14.357-32,32V480c0,17.643,14.357,32,32,32h192
		c8.224,0,15.659-3.211,21.333-8.32c5.675,5.12,13.109,8.32,21.333,8.32h192c17.643,0,32-14.357,32-32V309.333
		C501.333,291.691,486.976,277.333,469.333,277.333z M384,117.333v-32h42.667v32H384z M352,298.667h42.667v64H352V298.667z
		 M181.333,85.333H224v64h-42.667V85.333z M96,266.667V96c0-5.877,4.789-10.667,10.667-10.667H160v64
		c0,11.765,9.568,21.333,21.333,21.333H224c11.765,0,21.333-9.568,21.333-21.333v-64h53.333c5.877,0,10.667,4.789,10.667,10.667
		v170.667c0,5.877-4.789,10.667-10.667,10.667h-21.333c-8.224,0-15.659,3.211-21.333,8.32c-5.675-5.12-13.109-8.32-21.333-8.32h-128
		C100.789,277.333,96,272.544,96,266.667z M117.333,298.667H160v64h-42.667V298.667z M234.667,490.667h-192
		C36.789,490.667,32,485.877,32,480V309.333c0-5.877,4.789-10.667,10.667-10.667H96v64C96,374.432,105.568,384,117.333,384H160
		c11.765,0,21.333-9.568,21.333-21.333v-64h53.333c5.877,0,10.667,4.789,10.667,10.667V480
		C245.333,485.877,240.544,490.667,234.667,490.667z M480,480c0,5.877-4.789,10.667-10.667,10.667h-192
		c-5.877,0-10.667-4.789-10.667-10.667V309.333c0-5.877,4.789-10.667,10.667-10.667h53.333v64c0,11.765,9.568,21.333,21.333,21.333
		h42.667c11.765,0,21.333-9.568,21.333-21.333v-64h53.333c5.877,0,10.667,4.789,10.667,10.667V480z"/>
	<path style="fill:#474C54;" d="M352,426.667h-10.667c-5.888,0-10.667,4.779-10.667,10.667S335.445,448,341.333,448H352
		c5.888,0,10.667-4.779,10.667-10.667S357.888,426.667,352,426.667z"/>
	<path style="fill:#474C54;" d="M405.333,426.667h-10.667c-5.888,0-10.667,4.779-10.667,10.667S388.779,448,394.667,448h10.667
		c5.888,0,10.667-4.779,10.667-10.667S411.221,426.667,405.333,426.667z"/>
	<path style="fill:#474C54;" d="M181.333,234.667c5.888,0,10.667-4.779,10.667-10.667s-4.779-10.667-10.667-10.667h-10.667
		c-5.888,0-10.667,4.779-10.667,10.667s4.779,10.667,10.667,10.667H181.333z"/>
	<path style="fill:#474C54;" d="M224,234.667h10.667c5.888,0,10.667-4.779,10.667-10.667s-4.779-10.667-10.667-10.667H224
		c-5.888,0-10.667,4.779-10.667,10.667S218.112,234.667,224,234.667z"/>
	<path style="fill:#474C54;" d="M362.667,224c-5.888,0-10.667,4.779-10.667,10.667s4.779,10.667,10.667,10.667h32
		c5.888,0,10.667-4.779,10.667-10.667S400.555,224,394.667,224H362.667z"/>
</g>
<g>
</g>
<g>
</g>
<g>
</g>
<g>
</g>
<g>
</g>
<g>
</g>
<g>
</g>
<g>
</g>
<g>
</g>
<g>
</g>
<g>
</g>
<g>
</g>
<g>
</g>
<g>
</g>
<g>
</g>
</svg>
