<svg id="Flat" viewBox="0 0 64 64" xmlns="http://www.w3.org/2000/svg"><path d="m6.25 27v-13.5a9.761 9.761 0 0 1 9.75-9.75h32a9.761 9.761 0 0 1 9.75 9.75v13.5h-3.5v-13.5a6.257 6.257 0 0 0 -6.25-6.25h-32a6.257 6.257 0 0 0 -6.25 6.25v13.5z" fill="#bbdfff"/><path d="m5 32 3.421 25.661a5 5 0 0 0 4.957 4.339h37.244a5 5 0 0 0 4.957-4.339l3.421-25.661z" fill="#e9f7ff"/><path d="m57.265 31.769-1.131 8.481h-6.834l.649-8.11-3.489-.28-.672 8.39h-6.857l.218-8.2-3.5-.094-.221 8.3h-6.857l-.221-8.3-3.5.094.218 8.2h-6.852l-.672-8.39-3.489.28.649 8.11h-6.838l-1.131-8.481-3.47.462 3.422 25.662a6.771 6.771 0 0 0 6.69 5.857h37.246a6.771 6.771 0 0 0 6.69-5.857l3.422-25.662zm-1.6 11.981-.867 6.5h-6.298l.52-6.5zm-10.164 0-.52 6.5h-6.32l.173-6.5zm-16.573 10h6.138l-.173 6.5h-5.793zm-3.328 6.5h-5.784l-.52-6.5h6.133zm12.969-6.5h6.131l-.52 6.5h-5.78zm-3.235-10-.173 6.5h-6.324l-.173-6.5zm-10.173 0 .173 6.5h-6.32l-.52-6.5zm-10.179 0 .52 6.5h-6.302l-.867-6.5zm-4.826 13.68-.49-3.68h6.118l.52 6.5h-2.927a3.26 3.26 0 0 1 -3.221-2.82zm40.467 2.82h-2.923l.52-6.5h6.118l-.49 3.68a3.26 3.26 0 0 1 -3.225 2.82z" fill="#fc6081"/><g fill="#ff788f"><rect height="8.5" rx="1.75" width="63.5" x=".25" y="25.25"/><rect height="8.5" rx="4.25" width="31.5" x="16.25" y="1.25"/></g></svg>