<svg id="Capa_1" enable-background="new 0 0 512.001 512.001" height="512" viewBox="0 0 512.001 512.001" width="512" xmlns="http://www.w3.org/2000/svg"><g><path d="m256 191.001 80.957 111.873-80.957 194.127-62-72h-150.33c-15.83 0-28.67-12.84-28.67-28.67v-176.66c0-15.83 12.84-28.67 28.67-28.67z" fill="#e6e9f2"/><path d="m497 219.671v176.66c0 15.83-12.84 28.67-28.67 28.67h-150.33l-62 72v-306h212.33c15.83 0 28.67 12.84 28.67 28.67z" fill="#cfd7e6"/><g><path d="m43.67 206.001h212.33l15.612-16.774-15.612-13.226h-212.33c-24.08 0-43.67 19.59-43.67 43.67v176.66c0 24.08 19.59 43.67 43.67 43.67h143.45l57.51 66.79c2.85 3.31 7 5.21 11.37 5.21l13.074-23.698-13.074-14.292-50.63-58.8c-2.85-3.31-7-5.21-11.37-5.21h-150.33c-7.54 0-13.67-6.13-13.67-13.67v-176.66c0-7.54 6.13-13.67 13.67-13.67z" fill="#cfd7e6"/></g><g><g><path d="m220 347.288h-115c-8.284 0-15-6.716-15-15s6.716-15 15-15h115c8.284 0 15 6.716 15 15s-6.716 15-15 15z" fill="#9af"/></g><g><path d="m256 257.29 21 15-21 15h-151c-8.28 0-15-6.72-15-15s6.72-15 15-15z" fill="#9af"/></g></g><g><g><path d="m256 .001 26.722 86.777-26.722 43.973-31.62 13.11c-4.83 2-10.34 1.34-14.56-1.72-4.23-3.07-6.55-8.12-6.14-13.32l2.69-34.12-22.23-26.03c-3.39-3.97-4.48-9.41-2.86-14.38 1.61-4.96 5.69-8.73 10.76-9.95l33.29-7.99 17.88-29.19c2.73-4.451 7.57-7.16 12.79-7.16z" fill="#ffe14d"/></g><path d="m327.86 68.67-22.23 26.03 2.69 34.12c.41 5.2-1.91 10.25-6.14 13.32-2.6 1.89-5.69 2.86-8.82 2.86-1.94 0-3.89-.38-5.74-1.14l-31.62-13.109v-130.75c5.22 0 10.06 2.71 12.79 7.16l17.88 29.19 33.29 7.99c5.07 1.22 9.15 4.99 10.76 9.95 1.62 4.97.53 10.409-2.86 14.379z" fill="#ffc34d"/></g><path d="m511.27 54.291c-1.62-4.96-5.69-8.73-10.77-9.95l-33.29-7.99-17.88-29.191c-2.72-4.45-7.57-7.16-12.79-7.16s-10.06 2.71-12.79 7.16l-17.88 29.19-33.29 7.99c-5.07 1.22-9.15 4.99-10.76 9.95-1.62 4.97-.53 10.41 2.86 14.38l22.23 26.03-2.69 34.12c-.41 5.2 1.91 10.25 6.14 13.32 2.6 1.89 5.7 2.86 8.82 2.86 1.94 0 3.89-.38 5.74-1.14l31.62-13.11 31.62 13.11c4.83 2 10.34 1.34 14.56-1.72 4.23-3.07 6.55-8.12 6.14-13.32l-2.69-34.12 22.23-26.03c3.39-3.97 4.48-9.409 2.87-14.379z" fill="#ffc34d"/><path d="m150.178 54.291c-1.61-4.96-5.69-8.73-10.76-9.95l-33.29-7.99-17.88-29.191c-2.73-4.45-7.57-7.16-12.79-7.16s-10.06 2.71-12.79 7.16l-17.88 29.19-33.29 7.99c-5.07 1.22-9.15 4.99-10.76 9.95-1.62 4.97-.53 10.41 2.86 14.38l22.23 26.03-2.69 34.12c-.41 5.2 1.91 10.25 6.14 13.32 4.22 3.06 9.73 3.72 14.56 1.72l31.62-13.11 31.62 13.11c1.85.76 3.8 1.14 5.74 1.14 3.13 0 6.22-.97 8.82-2.86 4.23-3.07 6.55-8.12 6.14-13.32l-2.69-34.12 22.23-26.03c3.39-3.97 4.48-9.409 2.86-14.379z" fill="#ffe14d"/><path d="m422 332.29c0 8.28-6.72 15-15 15h-115c-8.28 0-15-6.72-15-15 0-8.29 6.72-15 15-15h115c8.28 0 15 6.711 15 15z" fill="#8080ff"/><path d="m422 272.29c0 8.28-6.72 15-15 15h-151v-30h151c8.28 0 15 6.721 15 15z" fill="#8080ff"/><path d="m512 219.671v176.66c0 24.08-19.59 43.67-43.67 43.67h-143.45l-57.51 66.79c-2.85 3.31-7 5.21-11.37 5.21v-37.99l50.63-58.8c2.85-3.31 7-5.21 11.37-5.21h150.33c7.54 0 13.67-6.13 13.67-13.67v-176.66c0-7.54-6.13-13.67-13.67-13.67h-212.33v-30h212.33c24.08 0 43.67 19.59 43.67 43.67z" fill="#b9c3d9"/></g></svg>