<svg enable-background="new 0 0 24 24" viewBox="0 0 24 24" xmlns="http://www.w3.org/2000/svg"><path d="m18.92 7.53v2.63c-.5.12-.97.3-1.42.54-.84-.45-1.78-.7-2.75-.7-.53 0-1.04.07-1.52.21-.67.17-1.28.47-1.82.87-1.46 1.04-2.41 2.74-2.41 4.66 0 1.46.61 2.92 1.49 4.26h-8.41c-.55 0-1-.45-1-1v-11.47z" fill="#ffb74d"/><path d="m13.23 10.21c-.67.17-1.28.47-1.82.87h-3.84c-.45 0-.81-.36-.81-.81s.36-.81.81-.81h4.86c.43 0 .78.33.8.75z" fill="#795548"/><path d="m19.5 7.527h-19c-.276 0-.5-.224-.5-.5v-3.284h20v3.284c0 .276-.224.5-.5.5z" fill="#ffcc80"/><path d="m20 3.743-2.973-3.743h-14.054l-2.973 3.743z" fill="#ffa726"/><path d="m17.5 24c-.157 0-.314-.049-.447-.148-.62-.461-6.053-4.602-6.053-8.114 0-2.061 1.682-3.738 3.75-3.738 1.063 0 2.054.446 2.75 1.194.696-.748 1.687-1.194 2.75-1.194 2.068 0 3.75 1.677 3.75 3.738 0 3.512-5.433 7.653-6.053 8.114-.133.099-.29.148-.447.148z" fill="#f44336"/></svg>