<svg id="Capa_1" enable-background="new 0 0 512 512" height="512" viewBox="0 0 512 512" width="512" xmlns="http://www.w3.org/2000/svg"><g><path d="m290.17 445.29c-17.943 20.92-50.364 20.959-68.34 0l-34.53-40.29h-98.3v47c0 33.08 26.92 60 60 60h214c33.08 0 60-26.92 60-60v-47h-98.3z"/><path d="m423 60c0-33.08-26.92-60-60-60h-214c-33.08 0-60 26.92-60 60v15h334z"/><circle cx="200" cy="208" r="25"/><path d="m219.947 259.24c-12.827 5.011-27.04 5.016-39.875.008-15.558 6.917-26.222 21.159-28.579 37.752h97.015c-2.415-17.007-13.532-31.07-28.561-37.76z"/><path d="m434 105h-356c-24.813 0-45 20.187-45 45v180c0 24.813 20.187 45 45 45h116.202c4.384 0 8.535 1.909 11.389 5.238l39.021 45.524c5.981 6.978 16.793 6.982 22.777 0l39.021-45.524c2.853-3.329 7.004-5.238 11.388-5.238h116.202c24.813 0 45-20.187 45-45v-180c0-24.813-20.187-45-45-45zm-155 207c0 8.284-6.716 15-15 15h-128c-8.284 0-15-6.716-15-15v-8c0-26.323 12.819-50.255 33.74-64.8-6.135-8.872-9.74-19.62-9.74-31.2 0-30.327 24.673-55 55-55s55 24.673 55 55c0 11.596-3.616 22.358-9.767 31.238 20.632 14.431 33.767 38.039 33.767 64.762zm73-105h-9v9c0 8.284-6.716 15-15 15s-15-6.716-15-15v-9h-9c-8.284 0-15-6.716-15-15s6.716-15 15-15h9v-9c0-8.284 6.716-15 15-15s15 6.716 15 15v9h9c8.284 0 15 6.716 15 15s-6.716 15-15 15z"/></g></svg>