<svg id="Capa_1" enable-background="new 0 0 512 512" height="512" viewBox="0 0 512 512" width="512" xmlns="http://www.w3.org/2000/svg"><g><g><path d="m320 75v362c0 33.14-26.86 60-60 60h-185c-33.14 0-60-26.86-60-60v-362c0-33.14 26.86-60 60-60h185c33.14 0 60 26.86 60 60z" fill="#c7fdff"/></g><g><path d="m320 75v362c0 33.14-26.86 60-60 60h-100v-482h100c33.14 0 60 26.86 60 60z" fill="#96e0e1"/></g><g><g><path d="m260 0h-185c-41.35 0-75 33.64-75 75v362c0 41.36 33.65 75 75 75h185c41.36 0 75-33.64 75-75v-362c0-41.36-33.64-75-75-75zm45 437c0 24.81-20.19 45-45 45h-185c-24.81 0-45-20.19-45-45v-362c0-24.81 20.19-45 45-45h1.23c5.39 19.51 23.01 33 43.37 33h96.8c20.36 0 37.98-13.49 43.37-33h.23c24.81 0 45 20.19 45 45z" fill="#78777f"/></g></g><g><path d="m335 75v362c0 41.36-33.64 75-75 75h-100v-30h100c24.81 0 45-20.19 45-45v-362c0-24.81-20.19-45-45-45h-.23c-5.39 19.51-23.01 33-43.37 33h-56.4v-63h100c41.36 0 75 33.64 75 75z" fill="#616169"/></g><g><g><path d="m467 121h-245c-24.81 0-45 20.19-45 45v196c0 24.81 20.19 45 45 45h1.97l27.55 41.32c2.78 4.17 7.46 6.68 12.48 6.68s9.7-2.51 12.48-6.68l27.55-41.32h162.97c24.81 0 45-20.19 45-45v-196c0-24.81-20.19-45-45-45z" fill="#ff6c6c"/></g></g><g><path d="m512 166v196c0 24.81-20.19 45-45 45h-155v-286h155c24.81 0 45 20.19 45 45z" fill="#e53950"/></g><g><path d="m383 312v16c0 8.28-6.72 15-15 15h-112c-8.28 0-15-6.72-15-15v-16c0-25.27 13.28-47.49 33.22-60.07-5.79-7.82-9.22-17.48-9.22-27.93 0-25.92 21.08-47 47-47s47 21.08 47 47c0 10.45-3.43 20.11-9.22 27.93 19.94 12.58 33.22 34.8 33.22 60.07z" fill="#fff4f4"/></g><g><path d="m383 312v16c0 8.28-6.72 15-15 15h-56v-166c25.92 0 47 21.08 47 47 0 10.45-3.43 20.11-9.22 27.93 19.94 12.58 33.22 34.8 33.22 60.07z" fill="#eee1dc"/></g><g><path d="m440 201h-9v-9c0-8.284-6.716-15-15-15s-15 6.716-15 15v9h-9c-8.284 0-15 6.716-15 15s6.716 15 15 15h9v9c0 8.284 6.716 15 15 15s15-6.716 15-15v-9h9c8.284 0 15-6.716 15-15s-6.716-15-15-15z" fill="#eee1dc"/></g></g></svg>