<svg id="Layer_1" enable-background="new 0 0 512 512" height="512" viewBox="0 0 512 512" width="512" xmlns="http://www.w3.org/2000/svg"><g><g><g><path d="m504.49 25.106c.055-9.489-8.151-17.786-17.375-17.591h-75.52c-9.598 0-17.379 7.997-17.379 17.861s7.781 17.861 17.379 17.861h33.564l-167.555 172.701-26.952-93.49c-2.72-13.07-20.052-18.226-29.158-8.334l-208.93 215.704c-6.786 6.975-6.786 18.285 0 25.26 3.393 3.488 7.842 5.231 12.289 5.231s8.896-1.743 12.289-5.231l187.174-193.344 26.952 93.49c2.72 13.07 20.052 18.226 29.158 8.334l189.31-195.061v34.494c0 9.865 7.781 17.861 17.379 17.861s17.379-7.997 17.379-17.861v-77.615c-.001-.091-.003-.18-.004-.27z" fill="#bbf49b"/><g><path d="m435.347 214.571h-198.563c-15.234 0-27.583 12.414-27.583 27.727v186.94c0 15.313 12.349 27.727 27.583 27.727h61.544l37.194 47.566 37.194-47.566h62.631c15.234 0 27.583-12.414 27.583-27.727v-186.94c0-15.313-12.349-27.727-27.583-27.727z" fill="#fe93d3"/><g><path d="m435.347 214.571h-40.002c15.234 0 27.583 12.414 27.583 27.727v186.94c0 15.313-12.349 27.727-27.583 27.727h40.002c15.234 0 27.583-12.414 27.583-27.727v-186.94c0-15.313-12.349-27.727-27.583-27.727z" fill="#fe73c5"/></g><path d="m355.926 335.054c8.305-6.141 13.697-16.029 13.697-27.187 0-18.63-15.024-33.733-33.557-33.733s-33.557 15.103-33.557 33.733c0 11.158 5.392 21.046 13.697 27.187-23.602 8.259-40.547 30.808-40.547 57.348h120.815c-.001-26.54-16.946-49.089-40.548-57.348z" fill="#fff"/></g></g></g><g><path d="m511.99 25.083c.351-13.083-11.821-25.563-24.946-25.069h-75.45c-32.956 1.267-32.95 49.46 0 50.723h15.836l-146.202 150.695-23.297-80.815c-3.35-18.336-29.591-25.855-41.882-11.661l-35.268 36.412c-6.874 6.894 4.107 17.523 10.775 10.437l35.328-36.473c4.848-5.502 15.165-2.761 16.564 5.193l23.796 82.545h-22.05l-13.668-47.414c-1.382-5.416-8.834-7.273-12.596-3.139l-187.163 193.33c-3.668 3.921-10.16 3.922-13.827 0-3.97-4.08-3.97-10.72.011-14.812l152.956-157.914c6.874-6.894-4.108-17.524-10.775-10.437l-152.944 157.904c-9.581 9.848-9.581 25.872 0 35.721 9.282 9.94 26.057 9.937 35.343-.013l178.167-184.039 9.086 31.519c-16.002 3.267-28.082 17.505-28.082 34.523v186.939c0 19.425 15.738 35.227 35.083 35.227h57.888l34.941 44.685c2.817 3.8 9 3.8 11.817 0l34.942-44.686h58.975c19.345 0 35.083-15.803 35.083-35.227v-23.622c.142-9.734-15.144-9.729-15.001 0v23.622c0 11.153-9.009 20.227-20.083 20.227h-62.631c-2.308 0-4.487 1.063-5.908 2.88l-31.285 40.01-31.285-40.009c-1.421-1.818-3.601-2.88-5.908-2.88h-61.545c-11.074 0-20.082-9.074-20.082-20.227v-186.94c-.075-12.415 10.943-21.457 22.977-20.227h195.669c11.074 0 20.083 9.074 20.083 20.227v134.237c-.142 9.734 15.144 9.729 15.001 0v-134.237c0-19.425-15.738-35.227-35.083-35.227h-89.648l116.533-120.077v15.997c1.257 33.6 48.505 33.595 49.758 0v-77.615zm-14.997 77.908c-.504 13.729-19.255 13.725-19.757 0v-34.494c.218-6.535-8.489-10.065-12.882-5.223l-139.558 143.796h-28.138l153.883-158.611c4.63-4.466 1.045-12.937-5.383-12.723h-33.563c-13.079-.511-13.086-20.208 0-20.722h75.52c5.175-.315 10.211 5.258 9.878 10.361z"/><path d="m268.158 392.401c0 4.142 3.358 7.5 7.5 7.5h120.815c4.142 0 7.5-3.358 7.5-7.5 0-25.114-13.735-47.898-35.122-59.746 20.348-26.593.78-66.284-32.787-66.021-33.563-.264-53.136 39.433-32.785 66.021-21.386 11.849-35.121 34.632-35.121 59.746zm50.525-50.268c5.572-1.752 6.786-9.79 1.982-13.11-20.119-14.916-9.69-47.311 15.401-47.388 25.092.077 35.52 32.476 15.401 47.388-4.805 3.321-3.589 11.358 1.982 13.11 18.867 6.602 32.238 23.272 34.997 42.768h-104.76c2.759-19.496 16.13-36.166 34.997-42.768z"/><path d="m162.132 350.808h-16.691v-16.691c-.307-9.917-14.696-9.909-15.001 0v16.691h-16.69c-9.917.307-9.909 14.696 0 15.001h16.691v16.691c.307 9.917 14.696 9.909 15.001 0v-16.691h16.691c9.916-.307 9.909-14.696-.001-15.001z"/><path d="m32.022 161.113h16.691v16.691c.307 9.917 14.696 9.909 15.001 0v-16.691h16.691c9.917-.307 9.909-14.696 0-15.001h-16.691v-16.691c-.307-9.917-14.696-9.909-15.001 0v16.691h-16.691c-9.916.308-9.909 14.697 0 15.001z"/><path d="m131.412 69.204h16.691v16.691c.307 9.917 14.696 9.909 15.001 0v-16.691h16.691c9.917-.307 9.909-14.696 0-15.001h-16.691v-16.691c-.307-9.917-14.696-9.909-15.001 0v16.691h-16.691c-9.916.308-9.909 14.697 0 15.001z"/></g></g></svg>