<svg id="Layer_1" enable-background="new 0 0 32 32" viewBox="0 0 32 32" xmlns="http://www.w3.org/2000/svg"><g><path d="m23.4058838 2.0000072h-18.4838867c-1.6137696 0-2.9219971 1.3082275-2.9219971 2.921997v14.5065308c0 1.6137695 1.3082275 2.9219971 2.9219971 2.9219971h2.6539307v3.0631104c0 .7954102.9467773 1.2099609 1.53125.6704712l4.0446777-3.7335815h10.2540283c1.6137695 0 2.9219971-1.3082275 2.9219971-2.9219971v-14.5065309c0-1.6137695-1.3082276-2.921997-2.9219971-2.921997zm-14.1656494 16.1474614h-2.5732422c-.5527344 0-1-.4477539-1-1s.4472656-1 1-1h2.5732422c.5527344 0 1 .4477539 1 1s-.4472656 1-1 1zm12.4208984-5.4912119h-14.9941406c-.5527344 0-1-.4477539-1-1s.4472656-1 1-1h14.9941406c.5527344 0 1 .4477539 1 1s-.4472656 1-1 1zm0-4.5688477h-7.8652344c-.5527344 0-1-.4477534-1-.9999995s.4472656-1 1-1h7.8652344c.5527344 0 1 .4477539 1 1s-.4472656.9999995-1 .9999995z" fill="#00bbb4"/><path d="m27.328125 5.6973338v13.7313843c0 2.1625977-1.7597656 3.921875-3.921875 3.921875h-9.8642578l-2.8936768 2.6721191h8.1998291l4.0446777 3.7335205c.5844727.5394897 1.53125.124939 1.53125-.6704712v-3.0630493h2.6539307c1.6137696.0000005 2.9219971-1.308227 2.9219971-2.9219966v-14.5065927c0-1.5280757-1.1771851-2.7678828-2.671875-2.8967891z" fill="#f15a29"/></g></svg>