<?xml version="1.0" encoding="utf-8"?>
<!-- Generator: Adobe Illustrator 27.5.0, SVG Export Plug-In . SVG Version: 6.00 Build 0)  -->
<svg version="1.1" id="Layer_1" xmlns="http://www.w3.org/2000/svg" xmlns:xlink="http://www.w3.org/1999/xlink" x="0px" y="0px"
	 viewBox="0 0 5000 5000" style="enable-background:new 0 0 5000 5000;" xml:space="preserve">
<g id="Mobile_Security">
	<g>
		<g>
			<g>
				<g>
					<g>
						<path style="fill:#EDEBFF;" d="M1010.421,1969.522c-66.705-10.835-139.19-36.042-169.533-96.725
							c-35.159-70.559,5.699-159.018,67.348-208.466c79.709-64.79,170.335-76.567,280.387-147.055
							c84.782-54.748,153.538-123.451,204.932-200.678c27.919-42.024,47.667-87.051,92.312-116.875
							c53.53-37.949,113.918-68.899,179.727-65.42c108.928,5.699,194.497,110.13,206.939,218.337
							C1905.541,1648.397,1489.502,2046.719,1010.421,1969.522z"/>
					</g>
				</g>
				<g>
					<g>
						<path style="fill:#EDEBFF;" d="M4375.904,1880.017c-140.714,116.157-358.285,43.533-398.868-137.184
							c-20.87-92.794,13.566-185.347,81.396-243.061c26.489,19.345,52.416,39.573,77.461,60.766
							c-52.015,33.714-80.191,97.368-65.822,161.424c27.567,122.613,182.095,159.15,262.888,67.59
							C4349.655,1818.688,4364.104,1848.87,4375.904,1880.017z"/>
					</g>
				</g>
				<g>
					<g>
						<path style="fill:#EDEBFF;" d="M4356.88,2151.733c-30.986,17.579-69.354,13.085-104.112,6.101
							c-249.724-50.169-473.841-215.529-595.853-439.083c-28.095-51.375-51.374-109.811-39.574-166.964
							c9.633-46.638,41.179-85.568,77.622-115.911c32.831-27.773,83.001-65.422,127.39-70.88
							c42.785-5.458,82.679,31.948,116.875,53.621c33.874,21.755,67.428,44.069,100.178,67.429
							c-71.28,63.253-107.001,162.388-84.606,261.844c32.671,145.533,177.721,237.363,323.333,204.611
							c39.734-8.909,75.535-26.249,105.798-49.687c10.676,32.269,18.461,65.503,22.716,99.536
							C4413.711,2057.897,4405.364,2124.601,4356.88,2151.733z"/>
					</g>
				</g>
				<g>
					<g>
						<path style="fill:#EDEBFF;" d="M3548.458,1515.011c-8.46-135.6-24.217-268.297-93.302-380.506
							c-85.256-138.504-239.682-214.887-399.997-228.404c-7.878,146.214-1.575,277.75,60.047,392.118
							c53.244,98.858,149.531,175.989,257.678,206.342C3429.364,1520.401,3489.824,1523.72,3548.458,1515.011z"/>
					</g>
				</g>
				<g>
					<g>
						<g>
							<path style="fill:#FFFFFF;" d="M4260.201,2944.096c-149.625,33.633-244.024,182.696-210.391,332.322
								c17.74,78.988,67.668,142.562,132.769,179.887c13.646-5.779,27.131-11.96,40.537-18.541
								c-68.07-30.102-121.61-90.948-139.19-168.971c-29.38-130.843,53.14-261.203,183.981-290.581
								c116.474-26.169,232.545,36.443,277.337,142.72c6.582-13.807,12.683-27.854,18.302-41.982
								C4504.868,2974.758,4382.694,2916.561,4260.201,2944.096z"/>
						</g>
					</g>
					<g>
						<g>
							<path style="fill:#FFFFFF;" d="M4476.933,3233.15c-40.216,53.382-88.298,100.66-141.438,138.309
								c-77.301,7.304-149.706-43.908-167.205-121.612c-18.944-84.446,34.115-168.329,118.561-187.273
								c84.445-19.023,168.249,34.037,187.273,118.482C4478.057,3198.635,4478.859,3216.214,4476.933,3233.15z"/>
						</g>
					</g>
				</g>
				<g>
					<g>
						<path style="fill:#EDEBFF;" d="M591.069,3210.54c79.785,135.351,197.22,239.103,332.239,315.735
							c74.987-75.558,134.649-190.965,102.009-289.526c-49.266-148.692-262.197-182.218-349.239-329.668
							c-71.402-121.089-33.498-266.979-63.611-391.703C467.331,2702.646,467.082,2999.387,591.069,3210.54z"/>
					</g>
				</g>
			</g>
			<g>
				<g>
					<g>
						<path style="fill:#EDEBFF;" d="M1010.421,1969.522c-66.705-10.835-139.19-36.042-169.533-96.725
							c-35.159-70.559,5.699-159.018,67.348-208.466c79.709-64.79,170.335-76.567,280.387-147.055
							c84.782-54.748,153.538-123.451,204.932-200.678c27.919-42.024,47.667-87.051,92.312-116.875
							c53.53-37.949,113.918-68.899,179.727-65.42c108.928,5.699,194.497,110.13,206.939,218.337
							C1905.541,1648.397,1489.502,2046.719,1010.421,1969.522z"/>
					</g>
				</g>
				<g>
					<g>
						<path style="fill:#EDEBFF;" d="M4375.904,1880.017c-140.714,116.157-358.285,43.533-398.868-137.184
							c-20.87-92.794,13.566-185.347,81.396-243.061c26.489,19.345,52.416,39.573,77.461,60.766
							c-52.015,33.714-80.191,97.368-65.822,161.424c27.567,122.613,182.095,159.15,262.888,67.59
							C4349.655,1818.688,4364.104,1848.87,4375.904,1880.017z"/>
					</g>
				</g>
				<g>
					<g>
						<path style="fill:#EDEBFF;" d="M4356.88,2151.733c-30.986,17.579-69.354,13.085-104.112,6.101
							c-249.724-50.169-473.841-215.529-595.853-439.083c-28.095-51.375-51.374-109.811-39.574-166.964
							c9.633-46.638,41.179-85.568,77.622-115.911c32.831-27.773,83.001-65.422,127.39-70.88
							c42.785-5.458,82.679,31.948,116.875,53.621c33.874,21.755,67.428,44.069,100.178,67.429
							c-71.28,63.253-107.001,162.388-84.606,261.844c32.671,145.533,177.721,237.363,323.333,204.611
							c39.734-8.909,75.535-26.249,105.798-49.687c10.676,32.269,18.461,65.503,22.716,99.536
							C4413.711,2057.897,4405.364,2124.601,4356.88,2151.733z"/>
					</g>
				</g>
				<g>
					<g>
						<path style="fill:#EDEBFF;" d="M3548.458,1515.011c-8.46-135.6-24.217-268.297-93.302-380.506
							c-85.256-138.504-239.682-214.887-399.997-228.404c-7.878,146.214-1.575,277.75,60.047,392.118
							c53.244,98.858,149.531,175.989,257.678,206.342C3429.364,1520.401,3489.824,1523.72,3548.458,1515.011z"/>
					</g>
				</g>
				<g>
					<g>
						<path style="fill:#EDEBFF;" d="M2743.669,3406.263c-11.238,48.483-15.412,95.844-13.004,140.475H972.485
							c80.736-87.639,137.034-214.031,100.018-325.661c-28.015-84.687-101.142-140.876-175.954-188.878
							c-64.956-41.336-138.971-85.064-177.56-150.428c-67.717-114.819-19.898-267.171-67.348-410.667
							c191.105-191.119,497.283-148.514,745.318-231.905c210.471-70.638,381.288-231.502,522.003-407.055
							c141.197-176.034,259.035-370.772,405.209-541.911c146.254-171.459,328.63-321.567,544.399-371.335
							c44.55-10.195,90.787-15.251,136.862-15.09c-8.187,153.799-1.365,293.15,65.903,418.051
							c60.524,112.059,165.519,196.183,288.174,230.62c41.42,11.559,84.204,17.419,126.828,17.419
							c21.833,0,43.587-1.526,65.02-4.496c8.75,159.74,15.091,320.522,93.757,454.175
							c125.189,212.891,393.014,287.416,590.235,386.023c-134.703,172.694-338.374,410.41-548.092,478.417
							c-163.823,53.132-349.158,17.36-523.368,67.507C2958.796,3010.606,2793.838,3189.048,2743.669,3406.263z"/>
					</g>
				</g>
				<g>
					<g>
						<path style="fill:#EDEBFF;" d="M4563.578,3078.917c-5.619,14.128-11.719,28.175-18.302,41.982
							c-18.863,39.412-41.901,77.141-68.311,112.219c-156.674,207.956-409.162,284.733-668.98,313.62h-1021.05
							c-2.569-40.135,1.204-83.323,11.479-127.793c44.952-194.577,198.029-360.738,381.048-413.396
							c165.072-47.689,352.017-11.95,525.134-68.07c225.484-73.145,436.236-318.585,581.083-505.227
							c118.72,65.742,225,150.268,279.986,274.447C4618.483,2825.339,4610.857,2958.028,4563.578,3078.917z"/>
					</g>
				</g>
				<g>
					<g>
						<g>
							<path style="fill:#FFFFFF;" d="M4260.201,2944.096c-149.625,33.633-244.024,182.696-210.391,332.322
								c17.74,78.988,67.668,142.562,132.769,179.887c13.646-5.779,27.131-11.96,40.537-18.541
								c-68.07-30.102-121.61-90.948-139.19-168.971c-29.38-130.843,53.14-261.203,183.981-290.581
								c116.474-26.169,232.545,36.443,277.337,142.72c6.582-13.807,12.683-27.854,18.302-41.982
								C4504.868,2974.758,4382.694,2916.561,4260.201,2944.096z"/>
						</g>
					</g>
					<g>
						<g>
							<path style="fill:#FFFFFF;" d="M4476.933,3233.15c-40.216,53.382-88.298,100.66-141.438,138.309
								c-77.301,7.304-149.706-43.908-167.205-121.612c-18.944-84.446,34.115-168.329,118.561-187.273
								c84.445-19.023,168.249,34.037,187.273,118.482C4478.057,3198.635,4478.859,3216.214,4476.933,3233.15z"/>
						</g>
					</g>
				</g>
				<g>
					<g>
						<path style="fill:#EDEBFF;" d="M591.069,3210.54c79.785,135.351,197.22,239.103,332.239,315.735
							c74.987-75.558,134.649-190.965,102.009-289.526c-49.266-148.692-262.197-182.218-349.239-329.668
							c-71.402-121.089-33.498-266.979-63.611-391.703C467.331,2702.646,467.082,2999.387,591.069,3210.54z"/>
					</g>
				</g>
			</g>
		</g>
		<g>
			<g>
				<path style="fill:#5652E5;" d="M3846.247,2660.398c-5.224,0-5.357-7.848-0.133-8.023c21.581-0.741,42.981-2.45,63.613-5.088
					c2.171-0.255,4.209,1.27,4.492,3.473c0.282,2.199-1.278,4.209-3.472,4.492c-20.875,2.665-42.534,4.398-64.358,5.143
					C3846.341,2660.398,3846.294,2660.398,3846.247,2660.398z M3782.053,2659.857c-8.85-0.605-29.367-1.247-64.452-5.624
					c-2.203-0.274-3.763-2.281-3.489-4.48c0.267-2.207,2.375-3.802,4.476-3.484c21.416,2.669,42.832,4.543,63.66,5.566
					c2.219,0.11,3.919,1.991,3.81,4.206C3785.957,2658.188,3784.186,2659.857,3782.053,2659.857z M3653.925,2644.07
					c-21.203-4.118-42.099-8.886-62.853-14.208c-2.148-0.549-3.441-2.736-2.893-4.884c0.549-2.148,2.728-3.438,4.884-2.893
					c20.489,5.247,41.218,10,62.398,14.106c2.171,0.419,3.59,2.528,3.175,4.703
					C3658.206,2643.086,3656.083,2644.495,3653.925,2644.07z M3972.501,2636.003c20.875-4.891,41.453-10.939,61.144-17.971
					c2.101-0.749,4.382,0.345,5.127,2.43c0.745,2.085-0.345,4.382-2.43,5.127c-19.974,7.134-40.841,13.268-62.007,18.229
					C3969.143,2645.017,3967.354,2637.211,3972.501,2636.003z M3529.121,2612.29c-19.597-6.056-40.151-12.891-61.097-20.307
					c-2.085-0.737-3.183-3.034-2.446-5.123c0.752-2.089,3.042-3.171,5.127-2.442c20.844,7.381,41.296,14.177,60.783,20.205
					c2.116,0.655,3.308,2.9,2.65,5.021C3533.481,2611.765,3531.23,2612.944,3529.121,2612.29z M4090.361,2598.247
					c-1.011-1.975-0.219-4.394,1.756-5.397c18.924-9.642,37.353-20.566,54.763-32.473c1.826-1.243,4.319-0.784,5.581,1.046
					c1.247,1.83,0.776,4.327-1.05,5.577c-17.693,12.104-36.42,23.203-55.657,33.002
					C4093.774,2601.006,4091.359,2600.216,4090.361,2598.247z M3409.192,2569.791c-0.486,0-0.98-0.086-1.458-0.274
					c-18.79-7.318-38.301-15.184-59.639-24.05c-2.054-0.851-3.018-3.202-2.171-5.248c0.854-2.054,3.206-3.01,5.244-2.167
					c21.291,8.842,40.747,16.689,59.482,23.987c2.062,0.803,3.088,3.132,2.281,5.197
					C3412.312,2568.819,3410.799,2569.791,3409.192,2569.791z M4196.626,2526.736c-1.481-1.646-1.348-4.186,0.298-5.667
					c15.937-14.345,30.799-29.741,44.181-45.756c1.426-1.709,3.958-1.925,5.652-0.51c1.701,1.423,1.928,3.951,0.509,5.652
					c-13.624,16.309-28.753,31.979-44.964,46.579C4200.662,2528.506,4198.132,2528.397,4196.626,2526.736z M3290.518,2520.696
					c-0.533,0-1.074-0.106-1.591-0.329c-19.676-8.482-39.305-17.05-58.91-25.61c-2.03-0.886-2.955-3.25-2.069-5.284
					c0.894-2.034,3.276-2.955,5.283-2.069c19.59,8.552,39.203,17.113,58.879,25.594c2.03,0.878,2.971,3.238,2.093,5.272
					C3293.551,2519.79,3292.07,2520.696,3290.518,2520.696z M4279.374,2429.105c-1.897-1.145-2.508-3.61-1.372-5.507
					c11.021-18.343,20.468-37.49,28.056-56.907c0.8-2.065,3.136-3.093,5.197-2.277c2.069,0.807,3.088,3.135,2.281,5.201
					c-7.761,19.836-17.395,39.387-28.652,58.114C4283.746,2429.628,4281.286,2430.245,4279.374,2429.105z M4016.196,2398.886
					c-2.211-0.184-3.849-2.128-3.661-4.335c0.18-2.215,2.234-3.896,4.335-3.661c20.954,1.775,42.464,2.406,63.723,1.905
					c5.534,0.127,5.308,7.9,0.188,8.027C4058.906,2401.336,4037.351,2400.678,4016.196,2398.886z M4140.703,2392.399
					c-0.282-2.199,1.27-4.213,3.465-4.496c20.977-2.724,42.08-6.577,62.735-11.457c5.265-1.158,6.947,6.611,1.85,7.815
					c-20.922,4.939-42.307,8.843-63.551,11.598C4143.055,2396.153,4140.997,2394.634,4140.703,2392.399z M3952.198,2389.84
					c-21.962-4.389-43.168-10.014-62.563-16.344c-2.109-0.686-3.253-2.951-2.571-5.06c0.69-2.109,2.955-3.245,5.064-2.571
					c19.391,6.339,40.441,11.868,61.638,16.105c2.179,0.435,3.582,2.548,3.151,4.723
					C3956.476,2388.88,3954.34,2390.281,3952.198,2389.84z M4265.68,2363.767c-0.721-2.093,0.384-4.382,2.477-5.107
					c20.044-6.941,39.939-14.984,59.129-23.909c1.999-0.925,4.397-0.067,5.331,1.944c0.933,2.011,0.063,4.398-1.944,5.331
					c-19.44,9.042-39.586,17.191-59.882,24.222C4268.654,2366.973,4266.402,2365.838,4265.68,2363.767z M3829.683,2348.99
					c-20.295-10.332-38.631-22.235-54.497-35.385c-4.079-3.384,1.024-9.568,5.127-6.177c15.412,12.77,33.245,24.348,53.007,34.405
					c1.975,1.007,2.767,3.422,1.756,5.401C3834.077,2349.206,3831.66,2349.992,3829.683,2348.99z M4383.648,2304.896
					c18.304-10.943,36.099-22.917,52.905-35.589c1.756-1.329,4.28-0.984,5.621,0.792c1.333,1.768,0.98,4.284-0.792,5.62
					c-17.026,12.84-35.063,24.975-53.611,36.067C4383.174,2314.501,4379.114,2307.613,4383.648,2304.896z M4326.894,2310.513
					c-2.179-0.408-3.614-2.505-3.206-4.684c6.32-33.864,5.424-61.799,5.479-63.112c-0.037-5.151,7.988-5.615,8.027-0.063
					c-0.111,2.636,1.229,27.982-5.621,64.648C4331.185,2309.382,4329.208,2310.911,4326.894,2310.513z M3731.351,2265.396
					c-12.621-18.892-21.69-38.885-26.966-59.423c-0.549-2.148,0.745-4.335,2.893-4.887c2.132-0.549,4.335,0.745,4.884,2.888
					c5.048,19.66,13.75,38.827,25.869,56.962c1.231,1.842,0.737,4.335-1.113,5.57
					C3735.083,2267.727,3732.593,2267.246,3731.351,2265.396z M4485.108,2233.895c-1.521-1.615-1.45-4.155,0.165-5.675
					c15.521-14.639,30.243-30.219,43.765-46.297c1.427-1.705,3.966-1.913,5.66-0.49c1.693,1.427,1.913,3.959,0.486,5.656
					c-13.718,16.317-28.659,32.116-44.408,46.971C4489.139,2235.597,4486.603,2235.486,4485.108,2233.895z M4322.747,2179.657
					c-4.092-20.836-10.104-41.292-17.896-60.807c-0.815-2.058,0.188-4.394,2.242-5.213c2.054-0.827,4.398,0.18,5.221,2.242
					c7.964,19.974,14.126,40.912,18.304,62.234c0.431,2.175-0.988,4.284-3.159,4.711
					C4325.23,2183.25,4323.158,2181.79,4322.747,2179.657z M3705.169,2145.33c-0.219,0-0.439-0.016-0.659-0.051
					c-2.187-0.361-3.668-2.422-3.308-4.609c3.418-20.954,11.194-41.511,23.117-61.101c1.152-1.901,3.63-2.493,5.511-1.344
					c1.897,1.152,2.493,3.622,1.34,5.515c-11.374,18.704-18.798,38.293-22.051,58.224
					C3708.798,2143.93,3707.097,2145.33,3705.169,2145.33z M4568.068,2136.248c-1.874-1.188-2.43-3.669-1.239-5.538
					c11.853-18.661,21.777-37.564,29.499-56.182c0.854-2.05,3.214-3.014,5.244-2.171c2.046,0.851,3.018,3.198,2.171,5.244
					c-7.902,19.045-18.038,38.36-30.141,57.413C4572.414,2136.896,4569.915,2137.432,4568.068,2136.248z M4279.076,2064.463
					c-1.309,0-2.587-0.639-3.355-1.815c-11.758-17.975-25.257-34.409-40.112-48.849c-1.591-1.544-1.623-4.084-0.079-5.676
					c1.544-1.587,4.084-1.623,5.675-0.078c15.278,14.847,29.146,31.74,41.226,50.205c1.215,1.858,0.697,4.343-1.16,5.558
					C4280.597,2064.251,4279.837,2064.463,4279.076,2064.463z M3765.733,2035.165c-1.505-1.627-1.403-4.166,0.219-5.672
					c15.208-14.055,32.696-27.139,52.004-38.885c1.874-1.148,4.359-0.557,5.511,1.344c1.152,1.893,0.556,4.362-1.341,5.515
					c-18.845,11.469-35.91,24.226-50.718,37.921C3769.776,2036.888,3767.246,2036.798,3765.733,2035.165z M4617.25,2018.499
					c-2.187-0.357-3.676-2.418-3.316-4.605c3.38-20.868,3.921-41.911,1.035-62.771c-0.306-2.195,1.23-4.221,3.425-4.523
					c2.171-0.31,4.226,1.223,4.523,3.426c3.026,21.917,2.42,43.748-1.066,65.154
					C4621.538,2017.151,4619.429,2018.849,4617.25,2018.499z M4187.494,1976.098c-0.69,0-1.388-0.176-2.022-0.549
					c-2.548-1.489-5.127-2.936-7.737-4.339c-15.749-8.478-32.634-15.482-50.169-20.82c-2.125-0.647-3.316-2.889-2.673-5.009
					c0.643-2.12,2.854-3.308,5.009-2.673c18.045,5.495,35.424,12.707,51.643,21.432c2.689,1.45,5.347,2.943,7.973,4.48
					c1.92,1.121,2.563,3.578,1.442,5.491C4190.213,1975.388,4188.865,1976.098,4187.494,1976.098z M3873.715,1966.871
					c-0.839-2.05,0.149-4.394,2.195-5.233c20.107-8.211,40.802-15,61.521-20.174c2.164-0.549,4.327,0.764,4.868,2.92
					c0.533,2.152-0.776,4.327-2.924,4.864c-20.35,5.084-40.676,11.755-60.423,19.821
					C3876.895,1969.906,3874.553,1968.927,3873.715,1966.871z M3997.649,1934.967c-0.196-2.207,1.435-4.159,3.637-4.355
					c21.989-1.964,43.93-2.003,64.844-0.145c2.21,0.196,3.841,2.144,3.645,4.355c-0.204,2.215-2.399,3.794-4.351,3.641
					c-20.444-1.819-41.907-1.78-63.417,0.145C3999.826,1938.812,3997.85,1937.195,3997.649,1934.967z M4596.681,1891.178
					c-8.78-18.179-20.491-35.828-34.805-52.462c-1.45-1.681-1.254-4.213,0.423-5.66c1.686-1.435,4.225-1.258,5.66,0.423
					c14.776,17.163,26.872,35.401,35.95,54.211c0.964,1.995,0.125,4.394-1.866,5.358
					C4600.018,1894.018,4597.632,1893.156,4596.681,1891.178z M4515.759,1795.37c-16.203-12.519-34.139-24.14-53.313-34.535
					c-1.952-1.054-2.673-3.492-1.615-5.44c1.066-1.956,3.496-2.661,5.44-1.615c19.55,10.598,37.846,22.455,54.395,35.24
					c1.756,1.352,2.077,3.876,0.721,5.628C4520.021,1796.413,4517.502,1796.72,4515.759,1795.37z M4404.484,1734.59
					c-18.328-6.836-38.207-13.256-60.775-19.617c-5.106-1.446-2.949-9.164,2.179-7.729c22.78,6.428,42.863,12.911,61.403,19.829
					c2.077,0.772,3.135,3.085,2.359,5.162C4408.874,1734.311,4406.564,1735.366,4404.484,1734.59z M4281.679,1698.978
					c-31.577-7.558-47.877-11.45-62.453-15.074c-5.119-1.28-3.261-9.047,1.944-7.792c14.445,3.596,29.841,7.273,62.39,15.067
					c2.156,0.521,3.48,2.689,2.963,4.844C4285.99,1698.218,4283.765,1699.5,4281.679,1698.978z M4157.063,1667.007
					c-25.148-7.625-45.9-15.198-60.917-21.467c-2.046-0.854-3.01-3.206-2.156-5.252c0.854-2.05,3.214-3.014,5.244-2.156
					c14.435,6.037,35.075,13.588,60.164,21.193c2.117,0.643,3.316,2.885,2.673,5.005
					C4161.433,1666.438,4159.206,1667.65,4157.063,1667.007z M4038.733,1615.246c-19.684-13.154-35.989-27.84-48.461-43.644
					c-1.372-1.74-1.074-4.26,0.666-5.636c1.732-1.372,4.257-1.078,5.636,0.666c11.955,15.141,27.64,29.251,46.618,41.943
					c1.85,1.231,2.344,3.723,1.113,5.566C4043.079,1615.97,4040.601,1616.487,4038.733,1615.246z M3962.036,1512.547
					c-4.283-20.498-3.734-42.585,2.352-65.432c0.564-2.136,2.744-3.422,4.915-2.842c2.14,0.568,3.418,2.767,2.845,4.911
					c-5.401,20.226-6.549,41.224-2.258,61.716c0.455,2.171-0.933,4.3-3.104,4.75
					C3964.598,1516.108,3962.483,1514.704,3962.036,1512.547z M3993.494,1393.795c-1.811-1.278-2.242-3.782-0.964-5.593
					c12.535-17.759,27.742-33.567,45.2-46.987c1.74-1.352,4.272-1.023,5.628,0.737c1.348,1.756,1.019,4.276-0.737,5.628
					c-16.814,12.927-31.458,28.154-43.538,45.255C3997.81,1394.648,3995.285,1395.072,3993.494,1393.795z M4092.187,1314.386
					c-0.854-2.046,0.102-4.398,2.148-5.252c18.728-7.847,38.952-14.22,61.811-19.484c5.215-1.173,6.948,6.635,1.803,7.823
					c-22.412,5.158-42.205,11.394-60.509,19.06C4095.433,1317.382,4093.054,1316.457,4092.187,1314.386z M4219.782,1278.605
					c19.84-2.563,39.885-4.555,60.392-6.53c2.14-0.157,4.163,1.399,4.382,3.61c0.212,2.207-1.403,4.166-3.614,4.378
					c-20.436,1.971-40.41,3.955-60.125,6.506C4215.46,1287.151,4214.585,1279.282,4219.782,1278.605z"/>
			</g>
			<g>
				<g>
					<g>
						<g>
							<polygon style="fill:#FFA903;" points="4650,1253.064 4220.928,1263.676 4241.487,1295.205 							"/>
						</g>
						<g>
							<g>
								<polygon style="fill:#FCC922;" points="4650,1253.064 4110.195,1394.199 4204.834,1287.76 								"/>
							</g>
							<g>
								<polygon style="fill:#FCC922;" points="4650,1253.064 4306.547,1215.824 4220.928,1263.676 								"/>
							</g>
						</g>
						<g>
							<polygon style="fill:#FFA903;" points="4221.374,1365.031 4257.458,1412.834 4649.982,1253.071 							"/>
						</g>
					</g>
				</g>
			</g>
		</g>
		<g>
			<path style="fill:#F7F5FF;" d="M1400.713,4009.987c0,47.598-235.208,86.209-525.343,86.209
				c-290.162,0-525.37-38.611-525.37-86.209c0-47.602,235.208-86.213,525.37-86.213
				C1165.505,3923.773,1400.713,3962.385,1400.713,4009.987z"/>
		</g>
		<g>
			<g>
				<g>
					<g>
						<g>
							<g>
								<path style="fill:#262040;" d="M1777.783,3598.798v97.644c0,6.739,4.827,12.158,10.832,12.158h232.184
									c6.122,0,11.068-5.684,10.832-12.552c-0.353-9.91-1.295-22.465-4.356-25.239c-49.215-44.659-95.959-31.317-102.199-52.323
									c-6.24-21.01-8.713-44.397-8.713-44.397S1786.025,3571.975,1777.783,3598.798z"/>
							</g>
						</g>
						<g>
							<g>
								<path style="fill:#352171;" d="M1140.368,2874.925c0,0,416.581-94.191,566.72-32.369
									c150.139,61.822,234.14,743.745,234.14,743.745c1.154,14.579-179.117,26.172-180.271,11.593
									c-23.183,0-210.938-539.866-223.081-542.074c-12.144-2.208-622.878,141.549-622.878,141.549l-6.624-303.59
									L1140.368,2874.925z"/>
							</g>
						</g>
						<g>
							<g>
								<rect x="619.58" y="3319.752" style="fill:#EDEBFF;" width="725.028" height="684.548"/>
							</g>
						</g>
						<g style="opacity:0.5;">
							<g>
								<path style="fill:#D7D4FF;" d="M1344.607,3319.752v507.916c-81.246-167.64-230.641-285.467-394.899-373.336
									c-57.748-30.981-119.544-58.906-185.14-60.971c-51.056-1.652-102.36,13.633-144.989,41.886v-115.495H1344.607z"/>
							</g>
						</g>
						<g>
							<g>
								<rect x="1344.607" y="3708.621" style="fill:#EDEBFF;" width="725.028" height="295.679"/>
							</g>
						</g>
						<g style="opacity:0.5;">
							<g>
								<path style="fill:#D7D4FF;" d="M2069.635,3708.621v249.745c-65.679-59.319-150.277-98.642-236.857-120.371
									c-116.983-29.329-239.005-29.99-359.54-30.567c-42.877-0.165-85.754-0.331-128.631-0.579v-98.228H2069.635z"/>
							</g>
						</g>
						<g>
							<g>
								<path style="fill:#262040;" d="M1571.135,3894.531v97.643c0,6.739,4.827,12.158,10.832,12.158h232.184
									c6.122,0,11.068-5.684,10.832-12.552c-0.353-9.91-1.295-22.465-4.356-25.239c-49.215-44.659-95.959-31.317-102.198-52.323
									c-6.241-21.01-8.713-44.397-8.713-44.397S1579.377,3867.708,1571.135,3894.531z"/>
							</g>
						</g>
						<g>
							<g>
								<path style="fill:#452B96;" d="M1747.272,3885.25c-12.723,8.51-142.346,33.046-190.51,26.023
									c-46.842-6.938-203.15-559.466-211.741-590.2c-0.248-0.908-0.414-1.321-0.414-1.321s-513.038,0-520.143,0
									c-159.86,0-132.018-230.908-124.005-289.154c1.074-7.931,1.818-12.638,1.652-13.135l216.616-41.142
									c0,0,330.129-24.123,534.188,0C1656.974,3000.364,1759.995,3876.741,1747.272,3885.25z"/>
							</g>
						</g>
						<g>
							<g>
								<path style="fill:#352171;" d="M1352.208,3317.521c-2.396,1.156-4.792,2.396-7.187,3.552
									c-0.248-0.908-0.414-1.321-0.414-1.321s-513.038,0-520.143,0c-159.86,0-132.018-230.908-124.005-289.154
									c16.853,5.539,34.864,12.562,54.113,21.235c28.502,49.734,42.464,124.334,92.116,152.837
									c109.795,63.117,268.085,55.352,391.098,85.092C1275.954,3299.016,1314.04,3308.27,1352.208,3317.521z"/>
							</g>
						</g>
						<g>
							<g>
								<path style="fill:#FFADAF;" d="M1713.076,2109.583c5.783,37.673-65.018,56.18-65.018,56.18l-0.083-0.246
									c-5.205,6.442-223.638,276.013-316.497,313.606c-45.108,18.258-207.033,31.392-207.033,31.392l-25.032-214.879
									c0,0,101.534-21.4,133.919-33.215c97.898-35.688,374.245-183.403,374.245-183.403l0.083,0.166
									c1.157-5.042,18.836-81.377,31.889-69.23c12.805,11.896,9.005,31.803,8.592,33.954c3.965-4.462,79.64-91.373,90.05-69.727
									c10.657,22.223-49.321,77.411-49.321,77.411S1707.292,2071.83,1713.076,2109.583z"/>
							</g>
						</g>
						<g>
							<g>
								<path style="fill:#FF2E56;" d="M1194.744,2517.232l-9.171,2.808l-112.769,34.7l-0.331,0.081l-1.322,0.412
									c0,0,56.509,286.344,67.083,310.633c36.092,83.759-361.649,234.209-441.08,191.668
									c-60.346-32.459-138.516-489.392-55.765-630.931c75.014-128.384,219.425-114.092,333.268-131.522
									c40.894-6.196,142.758-11.154,150.111-11.485c0.248,0,0.413,0,0.413,0
									C1148.975,2280.045,1218.454,2513.598,1194.744,2517.232z"/>
							</g>
						</g>
						<g>
							<g>
								<path style="fill:#AB1447;" d="M1194.882,2517.523l-8.91,2.728l-109.57,33.715l-0.321,0.078
									c-9.552-25.202-16.295-56.75-26.891-79.468c9.873,9.713,25.607,12.041,38.691,7.545
									c13.165-4.413,23.68-14.769,30.503-26.809c6.903-12.041,10.435-25.688,12.843-39.254
									c6.582-37.086,4.736-87.256-4.334-125.545c0.241,0,0.401,0,0.401,0C1150.411,2287.065,1217.92,2513.992,1194.882,2517.523z"
									/>
							</g>
						</g>
						<g>
							<g>
								<path style="fill:#AB1447;" d="M893.544,3033.719c-84.267,27.345-165.064,40.564-196.376,23.793
									c-35.936-19.332-78.484-190.345-89.142-355.162c33.131-99.385,88.151-191.501,161.347-266.515l17.433-30.898
									C882.214,2601.721,769.857,2847.479,893.544,3033.719z"/>
							</g>
						</g>
						<g>
							<g>
								<path style="fill:#FF2E56;" d="M725.725,2344.445c0,0-102.858,42.815-171.894,253.149
									c-9.47,31.514,239.577,106.357,249.046,74.843C802.877,2672.437,843.404,2374.05,725.725,2344.445z"/>
							</g>
						</g>
						<g>
							<g>
								<path style="fill:#FFADAF;" d="M789.18,2669.786l-25.112,111.525l419.013-29.244c0,0,22.656,103.102,19.702,103.84
									c-2.954,0.739-488.767,201.738-634.437,127.035c-115.218-59.086-14.515-385.348-14.515-385.348L789.18,2669.786z"/>
							</g>
						</g>
					</g>
				</g>
				<g>
					<g>
						<path style="fill:#0D1E43;" d="M1334.011,2862.681l-117.871,14.019c-8.516,1.013-15.105-7.315-12.161-15.37l58.012-158.713
							c1.488-4.072,5.14-6.961,9.444-7.473l117.871-14.019c8.516-1.013,15.106,7.315,12.161,15.37l-58.012,158.713
							C1341.968,2859.28,1338.316,2862.169,1334.011,2862.681z"/>
					</g>
				</g>
				<g>
					<g>
						<path style="fill:#FFADAF;" d="M1324.519,2785.03c-8.344,79.806-121.526,71.875-121.526,71.875l-19.911-104.838l60.538,0.813
							C1243.62,2752.88,1332.861,2705.224,1324.519,2785.03z"/>
					</g>
				</g>
			</g>
			<g>
				<g>
					<g>
						<path style="fill:#FFADAF;" d="M899.352,2305.16c3.064,22.308-67.605,33.121-79.611,8.259
							c1.447-25.033-4.002-56.366-12.09-90.083l68.798-1.788l6.386,18.476l8.938,25.543c-4.852,11.324-1.532,22.819,2.129,30.397
							C896.542,2301.583,899.352,2305.16,899.352,2305.16z"/>
					</g>
				</g>
				<g>
					<g>
						<path style="fill:#FF9396;" d="M893.902,2295.964h-0.083c0,0-51.004,2.128-66.584-34.739
							c-15.667-36.782,37.037-28.268,37.037-28.268l18.563,7.067l8.938,25.543C886.922,2276.891,890.241,2288.386,893.902,2295.964z
							"/>
					</g>
				</g>
				<g>
					<g>
						<path style="fill:#FFADAF;" d="M892.424,2280.939c-42.371,14.223-78.177-32.922-84.642-40.283
							c-0.397-0.497-0.696-0.795-0.895-0.895c0,0-36.204-16.809-24.965-40.382c11.239-23.871,36.601,10.643,37.896,10.643
							l6.763,4.973c0,0-5.272-54.107,4.475-56.793c7.659-1.99,56.296,2.686,82.554-7.26
							C926.54,2180.283,930.518,2268.208,892.424,2280.939z"/>
					</g>
				</g>
				<g>
					<g>
						<path style="fill:#300B4C;" d="M929.126,2139.007c-2.487,5.47-8.157,9.349-15.517,11.936
							c-26.258,9.946-74.895,5.271-82.554,7.26c-9.747,2.686-4.475,56.793-4.475,56.793l-6.763-4.973
							c-1.294,0-26.656-34.514-37.896-10.643c-11.239,23.573,24.965,40.382,24.965,40.382c0.199,0.1,0.498,0.397,0.895,0.895
							c0,0-35.607-3.779-49.333-49.83c-10.245-34.613,5.569-56.793,42.471-74.299c36.9-17.505,31.132-48.139,79.271-56.295
							C928.429,2052.077,940.663,2114.141,929.126,2139.007z"/>
					</g>
				</g>
			</g>
		</g>
		<g>
			<g>
				<g>
					<g>
						<path style="fill:#452B96;" d="M3498.432,1145.681v2199.294c0,112.19-90.948,203.138-203.138,203.138h-962.683
							c-112.112,0-202.996-90.885-202.996-202.996V1145.68c0-112.112,90.885-202.996,202.996-202.996h962.824
							C3407.547,942.683,3498.432,1033.568,3498.432,1145.681z"/>
					</g>
				</g>
				<g>
					<g>
						<path style="fill:#8F6DFF;" d="M3452.93,1145.496v2199.431c0,87.176-70.639,157.734-157.573,157.734h-962.693
							c-87.094,0-157.572-70.559-157.572-157.573V1145.657c0-87.015,70.478-157.573,157.572-157.573h154.844
							c15.251,0,29.299,9.232,34.115,23.681c10.274,30.584,39.252,52.658,73.368,52.658h438.04c21.272,0,40.457-8.75,54.584-22.557
							c8.349-8.429,14.85-18.704,18.703-30.102c4.816-14.449,18.864-23.681,34.115-23.681h155.084
							C3382.452,988.084,3452.93,1058.564,3452.93,1145.496z"/>
					</g>
				</g>
				<g>
					<g>
						<g>
							<path style="fill:#6737C1;" d="M2905.04,3230.49c-1.196,64.174-15.42,125.504-41.42,184.149
								c-2.704,6.099-7.79,8.526-13.04,6.286c-5.13-2.188-6.879-7.652-4.226-13.819c13.43-31.219,24.775-63.161,31.173-96.591
								c6.789-35.474,11.137-71.271,8.709-107.496c-0.999-14.907-2.726-29.833-11.581-42.759
								c-9.208-13.441-20.743-22.803-38.128-20.667c-24.361,2.994-36.43,22.574-38.015,46.9
								c-0.703,10.796-0.365,21.658-0.546,32.491c-0.127,7.624-6.553,12.594-12.813,9.459c-2.436-1.22-5.405-4.348-5.53-6.743
								c-1.018-19.54-2.117-39.256,3.898-58.242c9.031-28.505,35.322-46.018,64.036-42.57c21.454,2.576,35.411,16.007,45.815,33.916
								c8.999,15.49,10.635,32.71,11.584,50.018C2905.427,3213.355,2905.04,3221.933,2905.04,3230.49z"/>
						</g>
					</g>
					<g>
						<g>
							<path style="fill:#6737C1;" d="M2923.846,3055.389c4.224,2.742,7.004,6.094,5.714,11.427
								c-1.645,6.801-8.767,9.081-15.341,4.794c-14.23-9.277-29.609-15.667-46.218-19.26
								c-65.374-14.14-133.485,26.35-152.889,90.358c-6.273,20.694-5.307,37.259-7.492,76.695
								c-0.784,14.153-19.398,12.377-18.835-0.08c0.845-18.71,1.01-37.504,2.988-56.101
								c7.261-68.276,64.807-124.757,133.205-131.455C2859.966,3028.343,2893.939,3035.98,2923.846,3055.389z"/>
						</g>
					</g>
					<g>
						<g>
							<path style="fill:#6737C1;" d="M2969.052,3383.095c-5.19,12.792-22.186,5.892-17.477-6.813
								c20.682-55.803,28.049-113.82,29.319-172.945c0.788-36.648-9.223-69.511-32.117-98.297c-0.921-1.158-1.814-2.349-2.605-3.598
								c-6.864-10.845,8.054-20.899,15.259-10.808c6.4,8.963,12.944,17.906,18.392,27.449
								c14.728,25.798,20.568,53.848,19.588,83.425c-0.076,2.291,0.145,4.591,0.179,6.887
								C3000.334,3258.306,2988.042,3336.288,2969.052,3383.095z"/>
						</g>
					</g>
					<g>
						<g>
							<path style="fill:#6737C1;" d="M3044.221,3190.943c0,3.291,0.203,6.597-0.048,9.869
								c-0.786,10.236-15.745,12.403-17.965,1.105c-3.504-17.832,2.06-100.184-82.287-163.708
								c-22.334-16.82-47.661-27.094-75.394-31.225c-8.802-1.311-12.739-5.199-11.628-11.431c1.092-6.124,5.913-8.656,14.284-7.248
								c64.829,10.905,111.784,47.082,144.356,103.009C3033.398,3121.978,3042.706,3156.093,3044.221,3190.943z"/>
						</g>
					</g>
					<g>
						<g>
							<path style="fill:#6737C1;" d="M2697.232,3373.729c-3.262-2.657-6.357-4.301-8.148-6.857
								c-4.781-6.823,3.741-12.032,11.453-23.26c60.331-87.841,10.199-172.025,56.948-226.582c3.247-3.789,8.723-3.981,12.496-1.015
								c3.665,2.881,5.168,8.151,2.307,11.93c-18.248,24.096-19.24,52.292-19.087,80.583c0.303,56.003-8.8,114.211-46.543,157.949
								C2704.347,3369.152,2700.967,3370.905,2697.232,3373.729z"/>
						</g>
					</g>
					<g>
						<g>
							<path style="fill:#6737C1;" d="M2953.802,3211.123c0,7.074,0.167,14.153-0.05,21.22c-0.421,13.737-19.272,13.36-18.699-0.88
								c0.73-18.115,1.292-36.284-2.378-54.12c-7.902-38.412-28.865-66.348-66.945-79.074c-20.667-6.907-41.258-4.71-61.098,4.264
								c-0.899,0.407-1.764,0.888-2.66,1.302c-5.903,2.726-11.094,1.37-13.627-3.55c-2.604-5.058-0.578-10.402,5.354-13.405
								c10.964-5.549,22.573-9.168,34.794-10.468c48.807-5.194,93.782,22.189,114.2,69.099
								C2951.833,3166.507,2954.231,3188.583,2953.802,3211.123z"/>
						</g>
					</g>
					<g>
						<g>
							<path style="fill:#6737C1;" d="M2851.273,3192.172c1.204,65.772-5.223,130.245-32.204,191.205
								c-4.582,10.351-10.264,20.243-15.866,30.104c-3.465,6.101-9.286,7.499-14.121,4.22c-4.675-3.171-5.264-8.499-1.712-14.349
								c35.659-58.726,45.561-132.351,45.705-201.218c0.014-6.574-0.764-13.146-0.88-19.724c-0.048-2.734,0.116-5.732,1.192-8.163
								c1.603-3.623,5.07-5.125,9.021-4.654c3.754,0.448,6.625,2.424,7.183,6.384
								C2850.347,3181.348,2850.73,3186.771,2851.273,3192.172z"/>
						</g>
					</g>
					<g>
						<g>
							<path style="fill:#6737C1;" d="M2841.525,2941.341c36.328-0.025,70.903,7.725,103.54,23.668
								c2.828,1.381,6.036,4.255,6.755,7.034c0.7,2.708-0.827,6.764-2.717,9.18c-2.537,3.244-6.585,3.009-10.451,1.442
								c-10.512-4.259-20.839-9.173-31.659-12.439c-59.299-17.902-116.432-12.104-171.241,16.728
								c-0.874,0.459-1.714,0.985-2.596,1.426c-12.478,6.231-20.471-10.13-8.852-16.642c46.244-25.918,74.423-26.077,117.056-31.791
								C2841.416,2940.411,2841.47,2940.876,2841.525,2941.341z"/>
						</g>
					</g>
					<g>
						<g>
							<path style="fill:#6737C1;" d="M3081.533,3171.938c0,2.668,0.034,5.793-0.007,8.917
								c-0.191,14.298-18.733,13.934-18.831,0.194c-0.471-66.447-30.228-131.633-87.911-176.09c-1.681-1.296-3.44-2.635-4.7-4.303
								c-6.108-8.092,4.885-19.263,13.194-12.743c7.758,6.087,15.622,12.136,22.712,18.96
								C3052.689,3051.812,3077.414,3106.894,3081.533,3171.938z"/>
						</g>
					</g>
					<g>
						<g>
							<path style="fill:#6737C1;" d="M2601.236,3169.657c4.302-67.137,31.735-124.79,83.833-170.459
								c5.754-5.044,11.275-5.294,15.188-0.833c3.963,4.519,3.006,9.966-2.702,14.937c-39.961,34.804-64.906,78.23-74.165,130.406
								c-2.004,11.295-2.278,22.897-3.318,34.361c-0.148,1.636,0.015,3.307-0.205,4.93c-0.679,4.992-4.606,8.448-9.405,8.416
								c-4.804-0.032-8.76-3.529-9.166-8.583C2600.994,3179.073,2601.236,3175.27,2601.236,3169.657z"/>
						</g>
					</g>
					<g>
						<g>
							<path style="fill:#6737C1;" d="M2818.005,2987.432c13.631-0.485,14.804,16.879,2.022,18.712
								c-61.548,8.828-106.845,40.814-136.235,95.516c-4.084,7.601-12.217,8.908-16.668,2.719c-2.897-4.029-1.86-8.052,0.24-12.072
								c29.497-56.437,82.088-95.093,147.136-104.467C2815.802,2987.652,2817.115,2987.535,2818.005,2987.432z"/>
						</g>
					</g>
					<g>
						<g>
							<path style="fill:#6737C1;" d="M2646.862,3187.257c-1.615-17.122,0.248-33.923,4.188-50.519
								c1.564-6.587,5.954-9.858,11.552-8.632c5.579,1.222,8.744,6.186,6.818,12.651c-14.876,49.925,11.721,70.149-27.634,143.468
								c-3.233,6.024-8.422,7.892-13.451,5.195c-5.025-2.696-6.303-8.114-3.087-14.077c9.044-16.767,16.613-34.123,19.01-53.176
								C2645.713,3210.605,2646.032,3198.899,2646.862,3187.257z"/>
						</g>
					</g>
					<g>
						<g>
							<path style="fill:#6737C1;" d="M2797.27,3263.203c-3.164,46.936-16,90.633-43.318,129.483
								c-0.947,1.347-1.811,2.758-2.828,4.048c-3.528,4.477-8.802,5.46-13.068,2.494c-4.307-2.995-5.378-8.308-2.417-13.113
								c4.403-7.147,9.104-14.112,13.415-21.313c18.901-31.573,26.485-66.369,29.469-103.044
								c0.553-6.794,4.337-10.747,10.003-10.458C2794.356,3251.597,2797.703,3256.143,2797.27,3263.203z"/>
						</g>
					</g>
					<g>
						<g>
							<path style="fill:#6737C1;" d="M2950.666,3271.454c-7.428,41.702,0.563,13.219-32.186,133.821
								c-1.847,6.802-6.915,9.802-12.4,7.988c-5.528-1.828-7.341-6.854-5.526-13.774c35.261-134.423,25.849-99.158,30.994-129.535
								C2933.548,3258.148,2949.542,3259.316,2950.666,3271.454z"/>
						</g>
					</g>
					<g>
						<g>
							<path style="fill:#6737C1;" d="M3043.418,3244.803c-12.684,74.154-10.896,65.051-15.611,86.429
								c-2.982,13.522-20.911,10.084-18.385-3.89c17.457-96.551,11.777-63.919,14.288-84.155
								C3025.346,3230.011,3041.75,3230.327,3043.418,3244.803z"/>
						</g>
					</g>
					<g>
						<g>
							<path style="fill:#6737C1;" d="M2702.527,3261.41c-1.469,5.488-3.293,13.172-5.591,20.711
								c-7.412,24.313-21.129,48.422-24.964,53.513c-7.279,9.663-21.396,0.626-15.846-9.869
								c6.385-12.073,20.904-34.107,27.556-67.262c0.194-0.967,0.401-1.941,0.72-2.872
								C2687.715,3245.962,2703.09,3246.285,2702.527,3261.41z"/>
						</g>
					</g>
				</g>
				<g style="opacity:0.5;">
					<g>
						<path style="fill:#452B96;" d="M2840.434,1703.986c0,0-143.304,171.957-472.88,171.957v278.887
							c0,214.215,93.028,420.799,261.46,553.162c59.604,46.858,129.913,87.16,211.42,111.342
							c81.507-24.181,151.795-64.484,211.42-111.342c168.431-132.364,261.46-338.948,261.46-553.162v-278.887
							C2983.739,1875.942,2840.434,1703.986,2840.434,1703.986z"/>
					</g>
				</g>
			</g>
		</g>
		<g>
			<g>
				<g>
					<path style="fill:#452B96;" d="M2814.012,1659.595c0,0-143.304,171.957-472.88,171.957v278.887
						c0,214.215,93.029,420.799,261.46,553.163c59.604,46.858,129.913,87.16,211.421,111.342
						c81.507-24.181,151.794-64.484,211.42-111.342c168.431-132.364,261.46-338.948,261.46-553.163v-278.887
						C2957.316,1831.552,2814.012,1659.595,2814.012,1659.595z"/>
				</g>
				<g>
					<path style="fill:#FCC922;" d="M2814.012,2686.598c-55.592-19.603-109.122-49.497-159.471-89.078
						c-143.618-112.865-229.356-294.948-229.356-487.081v-198.387c192.264-16.573,319.322-87.618,388.827-140.096
						c69.506,52.478,196.563,123.523,388.827,140.096v198.387c0,192.133-85.738,374.216-229.346,487.073
						C2923.124,2637.101,2869.573,2667.001,2814.012,2686.598z"/>
				</g>
			</g>
			<g>
				<g>
					<g>
						<g>
							<path style="fill:#FF2E56;" d="M2966.978,2167.05c16.978,0,30.742,13.764,30.742,30.742v85.069
								c0,52-21.079,99.079-55.157,133.158c-34.544,34.544-82.446,55.73-135.293,55.145
								c-103.551-1.147-186.158-87.126-186.158-190.683v-82.689c0-16.978,13.764-30.742,30.742-30.742H2966.978z"/>
						</g>
					</g>
					<g style="opacity:0.25;">
						<g>
							<path style="fill:#AB1447;" d="M2997.714,2197.796v85.05c0,52.019-21.057,99.087-55.135,133.164
								c-34.571,34.539-82.458,55.727-135.298,55.17c-70.65-0.787-131.558-41.065-163.111-99.481
								c32.504,28.799,74.914,46.542,121.554,47.067c52.873,0.591,100.76-20.599,135.298-55.168
								c34.079-34.079,55.168-81.146,55.168-133.134v-63.402h10.791C2983.971,2167.063,2997.714,2180.805,2997.714,2197.796z"/>
						</g>
					</g>
					<g>
						<g>
							<path style="fill:#FFFFFF;" d="M2956.185,2167.05h-35.365v-56.932c0-61.428-49.976-111.404-111.404-111.404
								c-61.428,0-111.404,49.976-111.404,111.404v56.932h-35.365v-56.932c0-80.929,65.84-146.769,146.769-146.769
								c80.93,0,146.769,65.84,146.769,146.769V2167.05z"/>
						</g>
					</g>
				</g>
				<g>
					<path style="fill:#FFFFFF;" d="M2833.694,2290.657c0,9.844-5.827,18.298-14.236,22.116v22.822
						c0,5.518-4.503,9.999-10.043,9.999c-5.518,0-10.021-4.48-10.021-9.999v-22.822c-8.409-3.818-14.258-12.272-14.258-22.116
						c0-13.397,10.881-24.279,24.279-24.279C2822.835,2266.378,2833.694,2277.26,2833.694,2290.657z"/>
				</g>
			</g>
		</g>
		<g>
			<g style="opacity:0.5;">
				<path style="fill:#452B96;" d="M3452.892,1170.161h-923.259c-24.903,0-45.091,20.188-45.091,45.091v308.909
					c0,24.903,20.188,45.091,45.091,45.091h923.259V1170.161z"/>
			</g>
			<g>
				<path style="fill:#FF2E56;" d="M3678.17,1537.692H2574.96c-24.904,0-45.092-20.188-45.092-45.092v-308.909
					c0-24.903,20.188-45.092,45.092-45.092h1103.21c24.903,0,45.092,20.188,45.092,45.092V1492.6
					C3723.261,1517.503,3703.073,1537.692,3678.17,1537.692z"/>
			</g>
			<g>
				<g>
					<path style="fill:#FFFFFF;" d="M3634.148,1321.082h-548.078c-9.424,0-17.064,7.64-17.064,17.064v0
						c0,9.424,7.64,17.064,17.064,17.064h548.078c9.424,0,17.064-7.64,17.064-17.064v0
						C3651.212,1328.721,3643.573,1321.082,3634.148,1321.082z"/>
				</g>
				<g>
					<path style="fill:#FFFFFF;" d="M3333.698,1399.463h-247.628c-9.424,0-17.064,7.64-17.064,17.064l0,0
						c0,9.424,7.64,17.064,17.064,17.064h247.628c9.424,0,17.064-7.64,17.064-17.064l0,0
						C3350.762,1407.103,3343.123,1399.463,3333.698,1399.463z"/>
				</g>
				<g>
					<path style="fill:#FFFFFF;" d="M3373.279,1416.527L3373.279,1416.527c0,9.424,7.64,17.064,17.064,17.064h131.501
						c9.424,0,17.064-7.64,17.064-17.064l0,0c0-9.424-7.64-17.064-17.064-17.064h-131.501
						C3380.918,1399.463,3373.279,1407.103,3373.279,1416.527z"/>
				</g>
				<g>
					<path style="fill:#FFFFFF;" d="M3073.29,1259.764L3073.29,1259.764c0,9.424,7.64,17.064,17.064,17.064h319.042
						c9.424,0,17.064-7.64,17.064-17.064l0,0c0-9.424-7.64-17.064-17.064-17.064h-319.042
						C3080.929,1242.7,3073.29,1250.34,3073.29,1259.764z"/>
				</g>
			</g>
			<g>
				<g style="opacity:0.5;">
					<path style="fill:#AB1447;" d="M3019.324,1212.59v255.172c0,16.683-13.485,30.227-30.167,30.227h-381.771
						c-16.682,0-30.225-13.544-30.225-30.227V1212.59c0-16.683,13.543-30.167,30.225-30.167h381.771
						C3005.838,1182.423,3019.324,1195.907,3019.324,1212.59z"/>
				</g>
				<g>
					<g>
						<g>
							<path style="fill:#FFFFFF;" d="M2799.586,1430.916c-50.019,0-90.71-40.693-90.71-90.71c0-50.019,40.691-90.712,90.71-90.712
								s90.716,40.693,90.716,90.712C2890.302,1390.224,2849.605,1430.916,2799.586,1430.916z"/>
						</g>
					</g>
					<g>
						<path style="fill:#FF2E56;" d="M2839.729,1348.389l-53.124,38.588c-6.662,4.846-16.007,0-16.007-8.217v-77.091
							c0-8.306,9.344-13.067,16.007-8.217l53.124,38.588C2845.353,1336.103,2845.353,1344.324,2839.729,1348.389z"/>
					</g>
				</g>
			</g>
		</g>
		<g>
			<g>
				<g>
					<g>
						<path style="fill:#D7D4FF;" d="M3772.595,3181.152c12.917,45.384,28.397,94.417,45.031,141.453h165.667
							c-57.158-320.252-203.248-684.387-264.068-647.662C3676.233,2700.888,3700.139,2927.522,3772.595,3181.152z"/>
					</g>
				</g>
				<g>
					<g>
						<path style="fill:#C6C6F7;" d="M3840.295,3265.838h132.065c-21.445-103.799-51.604-211.759-84.255-306.194
							C3863.203,3053.49,3842.013,3168.871,3840.295,3265.838z"/>
					</g>
				</g>
				<g>
					<g>
						<polygon style="fill:#C6C6F7;" points="3901.345,3322.582 3716.787,2676.463 3721.711,2673.491 3907.12,3322.582 						"/>
					</g>
				</g>
			</g>
			<g>
				<g>
					<g>
						<path style="fill:#D7D4FF;" d="M4000.774,3298.702c39.657-6.735,78.695-6.859,115.819-1.424
							c23.349-38.419,55.902-84.069,96.794-130.52c110.383-121.933,223.731-209.154,152.635-251.096
							c-68.651-43.971-269.883,37.434-334.919,198.223C4003.822,3174.16,3993.947,3238.324,4000.774,3298.702z"/>
					</g>
				</g>
				<g>
					<path style="fill:#C6C6F7;" d="M3999.106,3278.132h40.089c36.897-88.648,65.358-194.519,82.526-288.592
						c-37.804,32.988-70.604,74.866-90.617,124.346C4003.677,3174.48,3996.822,3231.928,3999.106,3278.132z"/>
				</g>
				<g>
					<g>
						<path style="fill:#C6C6F7;" d="M4054.748,3293.505c34.242-145.57,140.39-289.233,307.41-379.966
							c2.571,1.401,5.131,2.811,7.682,4.233c-167.442,88.764-274.72,230.871-310.45,375.655
							C4057.844,3293.444,4056.297,3293.469,4054.748,3293.505z"/>
					</g>
				</g>
			</g>
			<g>
				<g>
					<g>
						<path style="fill:#D7D4FF;" d="M3868.03,3265.838h158.935c101.148-243.355,138.151-602.74,61.462-620.604
							C4005.543,2625.927,3872.534,3011.668,3868.03,3265.838z"/>
					</g>
				</g>
				<g>
					<g>
						<polygon style="fill:#C6C6F7;" points="3940.813,3265.862 4085.404,2644.549 4091.42,2645.949 3947.156,3265.862 						"/>
					</g>
				</g>
			</g>
			<g style="opacity:0.5;">
				<path style="fill:#ECEAFF;" d="M3871.984,3198.386c35.695,4.678,68.812-25.013,68.812-64.551
					c0-31.748-21.62-58.187-50.158-63.87C3881.867,3115.43,3875.69,3158.73,3871.984,3198.386z"/>
			</g>
			<g style="opacity:0.5;">
				<path style="fill:#FFFFFF;" d="M3832.985,3322.582c-7.895-22.34-15.722-45.63-23.39-69.832
					c32.565-21.462,74.236,11.487,77.99,69.832H3832.985z"/>
			</g>
			<g>
				<g>
					<path style="fill:#6737C1;" d="M3855.947,3529.351c10.026,10.624,23.989,16.669,38.597,16.669h152.634
						c14.578,0,28.599-6.053,38.606-16.679c61.14-64.502,86.999-161.729,52.43-258.662c-2.696-7.56-9.857-12.633-17.883-12.633
						h-298.978c-8.083,0-15.229,5.163-17.931,12.78c-6.502,18.333-11.044,37.283-13.334,56.156
						C3780.843,3398.26,3802.901,3473.139,3855.947,3529.351z"/>
				</g>
				<g>
					<g>
						<path style="fill:#542DAE;" d="M3790.089,3326.983c20.627,5.63,42.63-0.549,62.882-7.043
							c40.625-12.571,51.049-12.035,87.034,1.36c6.363,2.407,12.849,4.817,19.458,6.732c57.416,16.963,111.859-2.404,192.414,0.865
							c-0.248-2.102-0.495-4.138-0.803-6.177c-81.453-3.339-133.681,16.021-189.882-0.618
							c-19.889-5.799-38.653-16.096-60.226-17.298c-21.019-1.133-41.106,6.9-59.547,12.233c-14.948,4.446-33.665,8.647-50.528,3.767
							C3790.584,3322.844,3790.337,3324.944,3790.089,3326.983z"/>
					</g>
				</g>
				<g>
					<g>
						<path style="fill:#542DAE;" d="M3788.113,3361.08c0.062,2.099,0.062,4.198,0.186,6.301
							c14.629,3.415,28.722,10.207,44.783,15.008c80.151,23.544,156.273-24.472,316.511,20.817c0.432-2.039,0.741-4.138,1.05-6.177
							c-161.495-45.483-237.08,2.648-315.832-20.57c-6.362-1.915-12.847-4.322-19.024-6.608
							C3806.83,3366.515,3797.626,3363.119,3788.113,3361.08z"/>
					</g>
				</g>
				<g>
					<g>
						<path style="fill:#542DAE;" d="M3797.564,3426.928c0.679,2.346,1.359,4.633,2.1,6.916
							c61.647,15.259,126.073,19.828,188.709,12.912c55.63-6.156,96.519-17.8,149.607-1.052c0.741-1.915,1.42-3.827,2.039-5.806
							c-53.587-17.175-93.987-5.774-152.327,0.682C3924.501,3447.619,3859.519,3442.739,3797.564,3426.928z"/>
					</g>
				</g>
				<g>
					<g>
						<path style="fill:#542DAE;" d="M3823.384,3486.536c1.606,2.654,3.212,5.251,4.941,7.781
							c135.203,37.708,211.477,10.229,276.299,12.665c1.421-1.979,2.903-4.018,4.324-6.056c-32.937-1.673-68.503,3.81-98.215,5.93
							C3948.098,3511.368,3884.104,3504.201,3823.384,3486.536z"/>
					</g>
				</g>
			</g>
		</g>
		<g>
			<path style="fill:#8F6DFF;" d="M1285.053,1537.879H869.438c-33.037,0-59.819,26.782-59.819,59.819v252.284
				c0,33.037,26.782,59.819,59.819,59.819h359.229c7.917,0,15.51,3.145,21.108,8.743l85.904,85.903
				c3.392,3.392,9.193,0.99,9.193-3.808v-402.941C1344.872,1564.661,1318.09,1537.879,1285.053,1537.879z"/>
		</g>
		<g style="opacity:0.5;">
			
				<ellipse transform="matrix(0.7071 -0.7071 0.7071 0.7071 -903.4 1261.4607)" style="fill:#452B96;" cx="1071.018" cy="1721.231" rx="116.996" ry="116.996"/>
		</g>
		<g>
			<g>
				<path style="fill:#FFFFFF;" d="M1047.154,1780.358c-4.434,0-8.605-1.728-11.74-4.864l-28.153-28.153
					c-5.197-5.196-5.197-13.619,0-18.815c5.192-5.194,13.62-5.194,18.812,0l21.083,21.08l77.126-77.126
					c5.192-5.194,13.62-5.194,18.813,0c5.197,5.196,5.197,13.619,0,18.815l-84.198,84.198
					C1055.761,1778.63,1051.59,1780.358,1047.154,1780.358z"/>
			</g>
		</g>
		<g>
			<g>
				<path style="fill:#ECEAFF;" d="M2898.091,3219.919c-1.197,64.174-15.421,125.504-41.42,184.15
					c-2.704,6.1-7.79,8.526-13.04,6.286c-5.129-2.188-6.879-7.652-4.226-13.819c13.43-31.219,24.775-63.161,31.173-96.591
					c6.789-35.475,11.137-71.271,8.709-107.496c-0.999-14.907-2.726-29.833-11.581-42.759
					c-9.208-13.441-20.743-22.803-38.128-20.667c-24.36,2.994-36.43,22.574-38.015,46.9c-0.703,10.796-0.365,21.658-0.546,32.491
					c-0.127,7.624-6.553,12.594-12.813,9.459c-2.436-1.22-5.405-4.348-5.529-6.743c-1.018-19.54-2.117-39.256,3.898-58.242
					c9.031-28.505,35.322-46.018,64.036-42.57c21.454,2.576,35.411,16.007,45.815,33.916c8.999,15.49,10.635,32.71,11.584,50.018
					C2898.478,3202.785,2898.091,3211.363,2898.091,3219.919z"/>
			</g>
			<g>
				<path style="fill:#ECEAFF;" d="M2916.897,3044.82c4.224,2.742,7.004,6.094,5.714,11.427c-1.645,6.801-8.766,9.081-15.341,4.795
					c-14.23-9.277-29.609-15.667-46.218-19.26c-65.374-14.14-133.484,26.35-152.889,90.358c-6.273,20.694-5.307,37.259-7.491,76.695
					c-0.784,14.153-19.398,12.377-18.835-0.08c0.845-18.71,1.01-37.504,2.988-56.101c7.261-68.276,64.807-124.756,133.205-131.455
					C2853.017,3017.773,2886.99,3025.41,2916.897,3044.82z"/>
			</g>
			<g>
				<path style="fill:#ECEAFF;" d="M2962.103,3372.525c-5.19,12.792-22.186,5.892-17.477-6.813
					c20.683-55.803,28.049-113.82,29.319-172.945c0.788-36.648-9.223-69.511-32.117-98.297c-0.921-1.158-1.814-2.349-2.605-3.598
					c-6.864-10.844,8.054-20.899,15.259-10.807c6.4,8.963,12.944,17.906,18.393,27.449c14.728,25.798,20.568,53.848,19.588,83.425
					c-0.076,2.291,0.145,4.591,0.179,6.887C2993.385,3247.736,2981.093,3325.718,2962.103,3372.525z"/>
			</g>
			<g>
				<path style="fill:#ECEAFF;" d="M3037.271,3180.373c0,3.291,0.204,6.597-0.048,9.868c-0.787,10.236-15.745,12.403-17.965,1.105
					c-3.504-17.832,2.06-100.184-82.287-163.708c-22.334-16.82-47.661-27.094-75.394-31.225
					c-8.802-1.311-12.739-5.199-11.628-11.431c1.092-6.124,5.913-8.656,14.284-7.248c64.829,10.905,111.784,47.082,144.356,103.009
					C3026.449,3111.408,3035.757,3145.523,3037.271,3180.373z"/>
			</g>
			<g>
				<path style="fill:#ECEAFF;" d="M2690.282,3363.159c-3.262-2.657-6.357-4.301-8.148-6.857
					c-4.781-6.823,3.741-12.032,11.453-23.26c60.332-87.841,10.199-172.025,56.948-226.582c3.247-3.789,8.723-3.981,12.496-1.015
					c3.665,2.881,5.168,8.151,2.307,11.93c-18.248,24.096-19.24,52.292-19.087,80.583c0.304,56.003-8.8,114.211-46.543,157.95
					C2697.398,3358.582,2694.017,3360.335,2690.282,3363.159z"/>
			</g>
			<g>
				<path style="fill:#ECEAFF;" d="M2946.852,3200.553c0,7.074,0.167,14.153-0.05,21.22c-0.421,13.737-19.272,13.36-18.699-0.88
					c0.729-18.115,1.291-36.284-2.378-54.12c-7.902-38.412-28.865-66.348-66.945-79.074c-20.667-6.907-41.258-4.71-61.098,4.264
					c-0.899,0.407-1.764,0.888-2.66,1.302c-5.903,2.726-11.094,1.37-13.627-3.55c-2.604-5.058-0.578-10.402,5.354-13.405
					c10.964-5.549,22.573-9.168,34.794-10.469c48.808-5.194,93.782,22.189,114.2,69.099
					C2944.884,3155.938,2947.282,3178.013,2946.852,3200.553z"/>
			</g>
			<g>
				<path style="fill:#ECEAFF;" d="M2844.323,3181.603c1.204,65.772-5.223,130.245-32.204,191.204
					c-4.582,10.351-10.264,20.243-15.865,30.104c-3.465,6.1-9.287,7.499-14.121,4.22c-4.675-3.171-5.264-8.499-1.712-14.349
					c35.659-58.726,45.561-132.351,45.706-201.218c0.014-6.573-0.764-13.146-0.881-19.724c-0.048-2.734,0.116-5.732,1.193-8.163
					c1.603-3.623,5.07-5.125,9.02-4.654c3.754,0.448,6.625,2.424,7.183,6.384
					C2843.398,3170.778,2843.781,3176.201,2844.323,3181.603z"/>
			</g>
			<g>
				<path style="fill:#ECEAFF;" d="M2834.576,2930.771c36.328-0.025,70.903,7.725,103.54,23.668
					c2.828,1.381,6.037,4.255,6.755,7.034c0.7,2.708-0.827,6.764-2.716,9.18c-2.537,3.244-6.585,3.009-10.451,1.442
					c-10.512-4.259-20.839-9.173-31.659-12.439c-59.299-17.902-116.433-12.104-171.241,16.728c-0.874,0.46-1.714,0.985-2.596,1.426
					c-12.478,6.231-20.471-10.131-8.852-16.642c46.244-25.918,74.423-26.077,117.056-31.791
					C2834.467,2929.841,2834.521,2930.306,2834.576,2930.771z"/>
			</g>
			<g>
				<path style="fill:#ECEAFF;" d="M3074.583,3161.369c0,2.668,0.034,5.793-0.007,8.917c-0.191,14.297-18.733,13.934-18.831,0.194
					c-0.471-66.447-30.228-131.633-87.91-176.09c-1.681-1.296-3.44-2.635-4.7-4.303c-2.683-3.554-2.105-8.498,1.047-11.743
					c3.167-3.262,8.3-4.019,12.147-1c7.758,6.087,15.622,12.136,22.712,18.96C3045.74,3041.242,3070.465,3096.324,3074.583,3161.369
					z"/>
			</g>
			<g>
				<path style="fill:#ECEAFF;" d="M2594.287,3159.087c4.302-67.138,31.735-124.791,83.832-170.459
					c5.754-5.044,11.275-5.294,15.188-0.833c3.963,4.519,3.006,9.966-2.702,14.937c-39.961,34.804-64.906,78.23-74.165,130.406
					c-2.004,11.294-2.278,22.897-3.319,34.361c-0.148,1.636,0.015,3.307-0.205,4.93c-0.679,4.992-4.606,8.448-9.405,8.416
					c-4.803-0.032-8.76-3.529-9.166-8.583C2594.044,3168.503,2594.287,3164.7,2594.287,3159.087z"/>
			</g>
			<g>
				<path style="fill:#ECEAFF;" d="M2811.056,2976.862c13.631-0.484,14.804,16.879,2.022,18.712
					c-61.548,8.828-106.845,40.814-136.235,95.516c-4.083,7.601-12.217,8.908-16.668,2.719c-2.897-4.029-1.86-8.052,0.241-12.072
					C2691.887,3021.521,2748.685,2984.032,2811.056,2976.862z"/>
			</g>
			<g>
				<path style="fill:#ECEAFF;" d="M2639.912,3176.687c-1.615-17.122,0.248-33.923,4.188-50.519
					c1.564-6.587,5.954-9.858,11.552-8.632c5.579,1.222,8.744,6.186,6.817,12.651c-14.876,49.924,11.721,70.149-27.634,143.468
					c-3.233,6.024-8.422,7.892-13.451,5.194c-5.026-2.695-6.303-8.114-3.087-14.076c9.044-16.767,16.613-34.123,19.01-53.176
					C2638.764,3200.035,2639.083,3188.329,2639.912,3176.687z"/>
			</g>
			<g>
				<path style="fill:#ECEAFF;" d="M2790.321,3252.633c-3.164,46.936-16,90.633-43.318,129.483
					c-0.947,1.347-1.811,2.757-2.828,4.048c-3.528,4.477-8.802,5.46-13.068,2.494c-4.307-2.995-5.378-8.308-2.417-13.113
					c4.403-7.147,9.104-14.112,13.415-21.313c18.901-31.573,26.485-66.369,29.469-103.044c0.553-6.794,4.337-10.747,10.003-10.458
					C2787.406,3241.027,2790.754,3245.573,2790.321,3252.633z"/>
			</g>
			<g>
				<path style="fill:#ECEAFF;" d="M2943.717,3260.884c-7.428,41.702,0.563,13.219-32.186,133.821
					c-1.847,6.802-6.915,9.802-12.4,7.988c-5.528-1.828-7.341-6.854-5.526-13.774c35.261-134.423,25.849-99.158,30.994-129.535
					C2926.598,3247.578,2942.593,3248.746,2943.717,3260.884z"/>
			</g>
			<g>
				<path style="fill:#ECEAFF;" d="M3036.469,3234.233c-12.684,74.154-10.896,65.051-15.611,86.429
					c-2.982,13.522-20.911,10.083-18.385-3.89c17.457-96.552,11.777-63.919,14.288-84.155
					C3018.396,3219.441,3034.802,3219.757,3036.469,3234.233z"/>
			</g>
			<g>
				<path style="fill:#ECEAFF;" d="M2695.578,3250.841c-1.469,5.488-3.293,13.172-5.591,20.711
					c-7.412,24.313-21.129,48.422-24.964,53.513c-7.279,9.663-21.396,0.626-15.846-9.869c6.385-12.073,20.904-34.107,27.556-67.262
					c0.194-0.967,0.401-1.941,0.72-2.872C2680.766,3235.392,2696.141,3235.715,2695.578,3250.841z"/>
			</g>
		</g>
	</g>
</g>
</svg>
