<?xml version="1.0" encoding="UTF-8" standalone="no"?>
<!-- Created with Inkscape (http://www.inkscape.org/) -->

<svg
   version="1.1"
   id="svg9681"
   xml:space="preserve"
   width="682.66669"
   height="682.66669"
   viewBox="0 0 682.66669 682.66669"
   xmlns="http://www.w3.org/2000/svg"
   xmlns:svg="http://www.w3.org/2000/svg"><defs
     id="defs9685"><clipPath
       clipPathUnits="userSpaceOnUse"
       id="clipPath9695"><path
         d="M 0,512 H 512 V 0 H 0 Z"
         id="path9693" /></clipPath></defs><g
     id="g9687"
     transform="matrix(1.3333333,0,0,-1.3333333,0,682.66667)"><g
       id="g9689"><g
         id="g9691"
         clip-path="url(#clipPath9695)"><g
           id="g9697"
           transform="translate(445.0713,398.0127)"><path
             d="m 0,0 v -113.195 c 0,-11.046 -8.954,-20 -20,-20 h -272.174 l -39.223,-39.14 v 39.14 h -86.174 c -11.046,0 -20,8.954 -20,20 V -20 c 0,11.046 8.954,20 20,20 z"
             style="fill:#ffd54d;fill-opacity:1;fill-rule:nonzero;stroke:none"
             id="path9699" /></g><g
           id="g9701"
           transform="translate(66.9287,484.5)"><path
             d="m 0,0 v -93.195 c 0,-11.046 8.954,-20 20,-20 h 272.174 l 39.223,-39.14 v 39.14 h 86.174 c 11.046,0 20,8.954 20,20 V 0 c 0,11.046 -8.954,20 -20,20 L 20,20 C 8.954,20 0,11.046 0,0"
             style="fill:#fff5b5;fill-opacity:1;fill-rule:nonzero;stroke:none"
             id="path9703" /></g><g
           id="g9705"
           transform="translate(484.5,504.5)"><path
             d="m 0,0 h -40 c 11.046,0 20,-8.954 20,-20 v -93.195 c 0,-11.045 -8.954,-20 -20,-20 H 0 c 11.046,0 20,8.955 20,20 V -20 C 20,-8.954 11.046,0 0,0"
             style="fill:#ffef8f;fill-opacity:1;fill-rule:nonzero;stroke:none"
             id="path9707" /></g><g
           id="g9709"
           transform="translate(504.5,159.835)"><path
             d="m 0,0 v -93.194 c 0,-11.046 -8.954,-20 -20,-20 h -178.174 l -19.612,-39.141 -19.611,39.141 h -180.174 c -11.046,0 -20,8.954 -20,20 V 0 c 0,11.046 8.954,20 20,20 L -20,20 C -8.954,20 0,11.046 0,0"
             style="fill:#d4d9ff;fill-opacity:1;fill-rule:nonzero;stroke:none"
             id="path9711" /></g><g
           id="g9713"
           transform="translate(286.7139,7.5)"><path
             d="M 0,0 19.612,39.141 H -19.611 Z"
             style="fill:#c7cdff;fill-opacity:1;fill-rule:nonzero;stroke:none"
             id="path9715" /></g><g
           id="g9717"
           transform="translate(484.5,179.8359)"><path
             d="m 0,0 h -40 c 11.046,0 20,-8.955 20,-20 v -93.195 c 0,-11.046 -8.954,-20 -20,-20 H 0 c 11.046,0 20,8.954 20,20 V -20 C 20,-8.955 11.046,0 0,0"
             style="fill:#c7cdff;fill-opacity:1;fill-rule:nonzero;stroke:none"
             id="path9719" /></g><g
           id="g9721"
           transform="translate(196.7275,109.6367)"><path
             d="m 0,0 c 0,-8.819 -7.149,-15.969 -15.969,-15.969 -8.819,0 -15.969,7.15 -15.969,15.969 0,8.819 7.15,15.969 15.969,15.969 C -7.149,15.969 0,8.819 0,0"
             style="fill:#ffffff;fill-opacity:1;fill-rule:nonzero;stroke:none"
             id="path9723" /></g><g
           id="g9725"
           transform="translate(266.6982,109.6367)"><path
             d="m 0,0 c 0,-8.819 -7.149,-15.969 -15.97,-15.969 -8.819,0 -15.968,7.15 -15.968,15.969 0,8.819 7.149,15.969 15.968,15.969 C -7.149,15.969 0,8.819 0,0"
             style="fill:#ffffff;fill-opacity:1;fill-rule:nonzero;stroke:none"
             id="path9727" /></g><g
           id="g9729"
           transform="translate(336.668,109.6367)"><path
             d="m 0,0 c 0,-8.819 -7.149,-15.969 -15.969,-15.969 -8.819,0 -15.968,7.15 -15.968,15.969 0,8.819 7.149,15.969 15.968,15.969 C -7.149,15.969 0,8.819 0,0"
             style="fill:#ffffff;fill-opacity:1;fill-rule:nonzero;stroke:none"
             id="path9731" /></g><g
           id="g9733"
           transform="translate(406.6387,109.6367)"><path
             d="m 0,0 c 0,-8.819 -7.149,-15.969 -15.969,-15.969 -8.819,0 -15.968,7.15 -15.968,15.969 0,8.819 7.149,15.969 15.968,15.969 C -7.149,15.969 0,8.819 0,0"
             style="fill:#ffffff;fill-opacity:1;fill-rule:nonzero;stroke:none"
             id="path9735" /></g><g
           id="g9737"
           transform="translate(144.4199,470.5107)"><path
             d="M 0,0 10.023,-20.293 32.435,-23.547 16.218,-39.343 20.046,-61.647 0,-51.117 l -20.045,-10.53 3.828,22.304 -16.217,15.796 22.412,3.254 z"
             style="fill:#ffd54d;fill-opacity:1;fill-rule:nonzero;stroke:none"
             id="path9739" /></g><g
           id="g9741"
           transform="translate(7.5,363)"><path
             d="m 0,0 v 15.013 c 0,11.046 8.954,20 20,20 h 39.429"
             style="fill:none;stroke:#000000;stroke-width:15;stroke-linecap:round;stroke-linejoin:round;stroke-miterlimit:10;stroke-dasharray:none;stroke-opacity:1"
             id="path9743" /></g><g
           id="g9745"
           transform="translate(445.0713,369.3887)"><path
             d="m 0,0 v -84.571 c 0,-11.046 -8.954,-20 -20,-20 h -272.174 l -39.223,-39.14 v 39.14 h -86.174 c -11.046,0 -20,8.954 -20,20 v 36.849"
             style="fill:none;stroke:#000000;stroke-width:15;stroke-linecap:round;stroke-linejoin:round;stroke-miterlimit:10;stroke-dasharray:none;stroke-opacity:1"
             id="path9747" /></g><g
           id="g9749"
           transform="translate(66.9287,484.5)"><path
             d="m 0,0 v -93.195 c 0,-11.046 8.954,-20 20,-20 h 272.174 l 39.223,-39.14 v 39.14 h 86.174 c 11.046,0 20,8.954 20,20 V 0 c 0,11.046 -8.954,20 -20,20 L 20,20 C 8.954,20 0,11.046 0,0 Z"
             style="fill:none;stroke:#000000;stroke-width:15;stroke-linecap:round;stroke-linejoin:round;stroke-miterlimit:10;stroke-dasharray:none;stroke-opacity:1"
             id="path9751" /></g><g
           id="g9753"
           transform="translate(428.998,179.8359)"><path
             d="m 0,0 h -342.07 c -11.045,0 -20,-8.955 -20,-20 v -93.195 c 0,-11.046 8.955,-20 20,-20 h 180.174 l 19.612,-39.141 19.612,39.141 H 55.502 c 11.046,0 20,8.954 20,20 V -20 c 0,11.045 -8.954,20 -20,20 H 39.986"
             style="fill:none;stroke:#000000;stroke-width:15;stroke-linecap:round;stroke-linejoin:round;stroke-miterlimit:10;stroke-dasharray:none;stroke-opacity:1"
             id="path9755" /></g><g
           id="g9757"
           transform="translate(196.7275,109.6367)"><path
             d="m 0,0 c 0,-8.819 -7.149,-15.969 -15.969,-15.969 -8.819,0 -15.969,7.15 -15.969,15.969 0,8.819 7.15,15.969 15.969,15.969 C -7.149,15.969 0,8.819 0,0 Z"
             style="fill:none;stroke:#000000;stroke-width:15;stroke-linecap:round;stroke-linejoin:round;stroke-miterlimit:10;stroke-dasharray:none;stroke-opacity:1"
             id="path9759" /></g><g
           id="g9761"
           transform="translate(266.6982,109.6367)"><path
             d="m 0,0 c 0,-8.819 -7.149,-15.969 -15.97,-15.969 -8.819,0 -15.968,7.15 -15.968,15.969 0,8.819 7.149,15.969 15.968,15.969 C -7.149,15.969 0,8.819 0,0 Z"
             style="fill:none;stroke:#000000;stroke-width:15;stroke-linecap:round;stroke-linejoin:round;stroke-miterlimit:10;stroke-dasharray:none;stroke-opacity:1"
             id="path9763" /></g><g
           id="g9765"
           transform="translate(336.668,109.6367)"><path
             d="m 0,0 c 0,-8.819 -7.149,-15.969 -15.969,-15.969 -8.819,0 -15.968,7.15 -15.968,15.969 0,8.819 7.149,15.969 15.968,15.969 C -7.149,15.969 0,8.819 0,0 Z"
             style="fill:none;stroke:#000000;stroke-width:15;stroke-linecap:round;stroke-linejoin:round;stroke-miterlimit:10;stroke-dasharray:none;stroke-opacity:1"
             id="path9767" /></g><g
           id="g9769"
           transform="translate(406.6387,109.6367)"><path
             d="m 0,0 c 0,-8.819 -7.149,-15.969 -15.969,-15.969 -8.819,0 -15.968,7.15 -15.968,15.969 0,8.819 7.149,15.969 15.968,15.969 C -7.149,15.969 0,8.819 0,0 Z"
             style="fill:none;stroke:#000000;stroke-width:15;stroke-linecap:round;stroke-linejoin:round;stroke-miterlimit:10;stroke-dasharray:none;stroke-opacity:1"
             id="path9771" /></g><g
           id="g9773"
           transform="translate(216.2861,458.5674)"><path
             d="M 0,0 H 234.714"
             style="fill:none;stroke:#000000;stroke-width:15;stroke-linecap:round;stroke-linejoin:round;stroke-miterlimit:10;stroke-dasharray:none;stroke-opacity:1"
             id="path9775" /></g><g
           id="g9777"
           transform="translate(216.2861,420.8066)"><path
             d="M 0,0 H 130.714"
             style="fill:none;stroke:#000000;stroke-width:15;stroke-linecap:round;stroke-linejoin:round;stroke-miterlimit:10;stroke-dasharray:none;stroke-opacity:1"
             id="path9779" /></g><g
           id="g9781"
           transform="translate(144.4199,470.5107)"><path
             d="M 0,0 10.023,-20.293 32.435,-23.547 16.218,-39.343 20.046,-61.647 0,-51.117 l -20.045,-10.53 3.828,22.304 -16.217,15.796 22.412,3.254 z"
             style="fill:none;stroke:#000000;stroke-width:15;stroke-linecap:round;stroke-linejoin:round;stroke-miterlimit:10;stroke-dasharray:none;stroke-opacity:1"
             id="path9783" /></g></g></g></g></svg>
